<svg xmlns="http://www.w3.org/2000/svg" xmlns:xlink="http://www.w3.org/1999/xlink" width="95" height="86" viewBox="0 0 95 86">
  <defs>
    <clipPath id="clip-path">
      <path id="Caminho_3735" data-name="Caminho 3735" d="M253.97,403.211c-2.819-2.407-6.961-3.141-9.311-6.1-1.2-1.506-1.973-3.288-3.791-4.176a7.351,7.351,0,0,0-5.02-.4,13.317,13.317,0,0,0-5.147,2.949,38.913,38.913,0,0,0-3.979,3.875,26.35,26.35,0,0,0-5.539,9.275c-1.092,3.377-1.658,8.006,1.947,10.066a37.033,37.033,0,0,0,5.691,2.211c2.042.744,4.076,1.506,6.126,2.229,3.818,1.347,8.28,2.574,12.191.871a9.644,9.644,0,0,0,3.291-2.364c2.542-2.107,3.925-5.413,5.14-8.4a11.1,11.1,0,0,0,1.1-5.3A7.33,7.33,0,0,0,253.97,403.211Z" transform="translate(-220.355 -392.271)" fill="#93c3fd"/>
    </clipPath>
    <clipPath id="clip-path-2">
      <path id="Caminho_3740" data-name="Caminho 3740" d="M304.386,398.8a20.158,20.158,0,0,0-4.3-4.507c-1.552-1.17-3.525-2.4-5.544-2.293-1.974.1-3.412,1.52-4.507,3.038-1.247,1.727-2.205,3.616-3.828,5.042-3.5,3.084-8.2,4.175-12.24,6.331-3.366,1.8-6.5,4.664-7.048,8.637a6.181,6.181,0,0,0,.178,2.547.43.43,0,0,0,.556.306,11.844,11.844,0,0,0,1.222,4.6c1.733,3.535,4.814,6.348,8.955,6.018a21.093,21.093,0,0,0,5.809-1.657l7.18-2.773,7.039-2.717a30.153,30.153,0,0,0,5.97-2.82C310.861,413.862,308.494,404.627,304.386,398.8Z" transform="translate(-266.857 -391.992)" fill="#93c3fd"/>
    </clipPath>
  </defs>
  <g id="Grupo_718" data-name="Grupo 718" transform="translate(-36 -251)">
    <circle id="Elipse_36" data-name="Elipse 36" cx="43" cy="43" r="43" transform="translate(39 251)" fill="#ff784a" opacity="0.253"/>
    <g id="Grupo_597" data-name="Grupo 597" transform="translate(36 269.254)">
      <g id="Grupo_593" data-name="Grupo 593" transform="translate(0 0.321)">
        <g id="Grupo_592" data-name="Grupo 592">
          <path id="Caminho_3733" data-name="Caminho 3733" d="M253.97,403.211c-2.819-2.407-6.961-3.141-9.311-6.1-1.2-1.506-1.973-3.288-3.791-4.176a7.351,7.351,0,0,0-5.02-.4,13.317,13.317,0,0,0-5.147,2.949,38.913,38.913,0,0,0-3.979,3.875,26.35,26.35,0,0,0-5.539,9.275c-1.092,3.377-1.658,8.006,1.947,10.066a37.033,37.033,0,0,0,5.691,2.211c2.042.744,4.076,1.506,6.126,2.229,3.818,1.347,8.28,2.574,12.191.871a9.644,9.644,0,0,0,3.291-2.364c2.542-2.107,3.925-5.413,5.14-8.4a11.1,11.1,0,0,0,1.1-5.3A7.33,7.33,0,0,0,253.97,403.211Z" transform="translate(-220.355 -392.271)" fill="#93c3fd"/>
          <g id="Grupo_591" data-name="Grupo 591" clip-path="url(#clip-path)">
            <path id="Caminho_3734" data-name="Caminho 3734" d="M257.273,413.763a8.5,8.5,0,0,0-7.1-4.085.554.554,0,0,0-.884-.264c-.117.1-.22.21-.332.312a8.189,8.189,0,0,0-.866.119.836.836,0,0,0-.492,1.313c-.519.629-1,1.287-1.5,1.936a9.5,9.5,0,0,1-3.818,3.139c-3.239,1.392-7.092,1.185-10.527.94a55.125,55.125,0,0,1-6.19-.789c-1.662-.311-3.42-.952-5.128-.852a3.437,3.437,0,0,0-3.273,2.415,4.715,4.715,0,0,0,1.117,4.3,14.62,14.62,0,0,0,4.027,3.055,27.08,27.08,0,0,0,4.653,2.1,34.989,34.989,0,0,0,10.2,1.77,46.071,46.071,0,0,0,10.31-.811c3.345-.658,6.671-1.989,8.894-4.676A8.666,8.666,0,0,0,257.273,413.763Z" transform="translate(-220.862 -389.695)" fill="#93c3fd" opacity="0.5" style="mix-blend-mode: multiply;isolation: isolate"/>
          </g>
        </g>
        <path id="Caminho_3736" data-name="Caminho 3736" d="M275.358,418.479c-.555-.515-1.276-1.1-1.961-1.674a28.42,28.42,0,0,0-5.4-3.6,61.112,61.112,0,0,0-7.606-2.783c.233-.206.466-.41.7-.616a4.764,4.764,0,0,0,1.542-1.7,1.2,1.2,0,0,0-.754-1.57,3.949,3.949,0,0,0-2.211.318,25.57,25.57,0,0,0-2.677.965,23.912,23.912,0,0,0-2.481,1.262l-2.176-1.2c-1.4-.773-2.776-1.627-4.214-2.32a3.758,3.758,0,0,0-3.578.3c-1.264.636-5.571,4.194-4.911,9.365a6.905,6.905,0,0,0,1.72,3.336,4.442,4.442,0,0,0,3.469,1.317,38.662,38.662,0,0,1,8.726,1.717v.043a36.217,36.217,0,0,1,3.676,1.244h0s.113.044.314.117c.038.013.077.03.126.045s.089.035.136.049c1.5.552,5.534,1.944,7.2,1.717.854-.116.8-.53.161-1.09a22.247,22.247,0,0,0-5.183-2.82,8.649,8.649,0,0,1,3.56,1.09,15.8,15.8,0,0,0,3.213,1.382,5.228,5.228,0,0,0,2.744.128c.539-.146.426-.531-.04-1.014a26.618,26.618,0,0,0-5.2-3.4,12.211,12.211,0,0,0-2.916-1.217,19.317,19.317,0,0,1,3.854.9c.948.408,3.415,2.274,5.435,3.2a4.263,4.263,0,0,0,2.024.519c1.082-.119.8-.778-.064-1.617h0a22.513,22.513,0,0,0-2.691-2.095c-2.308-1.589-3.411-2.427-4.385-3.019a16.491,16.491,0,0,0-3.14-1.285c.215.008,3.613.746,4.725,1.127.979.333,4.628,3.087,7.108,4.06a4.929,4.929,0,0,0,1.154.326C276.861,420.153,276.407,419.449,275.358,418.479Z" transform="translate(-217.446 -390.31)" fill="#fb9476"/>
      </g>
      <path id="Caminho_3737" data-name="Caminho 3737" d="M280.773,415.307a3.716,3.716,0,0,0-2.746-1.385,5.416,5.416,0,0,0,1.2-3.429,3.026,3.026,0,0,0-2.635-2.638c-1.542-.295-4.456-.078-5.613,1.358a7.524,7.524,0,0,0-4.65-5.2,5.586,5.586,0,0,0-7.055,2.859,5.128,5.128,0,0,0-.4,2.039,2.093,2.093,0,0,0-1.605-.119,2.228,2.228,0,0,0-1.362,1.375,3.974,3.974,0,0,0-4.721-.556c-2.3,1.415-2.848,4.555-1.829,6.91a5.876,5.876,0,0,0,.784,1.308,3.809,3.809,0,0,0-3.6,2.794c-.777,2.789,1.834,5.157,4.358,5.633a15.1,15.1,0,0,0,5.964-.459.458.458,0,0,0,.107-.047.435.435,0,0,0,.087.182c1.578,1.917,4.026,4.05,6.674,2.792a2.748,2.748,0,0,0,1.605-2.526,2.842,2.842,0,0,0-.089-.669,14.376,14.376,0,0,0,3.595,1.05,6.174,6.174,0,0,0,4.35-.684,3.1,3.1,0,0,0,1.194-3.664,7.22,7.22,0,0,0,3.152.059,5.355,5.355,0,0,0,3.665-2.835A3.815,3.815,0,0,0,280.773,415.307Z" transform="translate(-216.409 -390.221)" fill="#fff"/>
      <g id="Grupo_596" data-name="Grupo 596" transform="translate(34.364 0)">
        <g id="Grupo_595" data-name="Grupo 595" transform="translate(19.181)">
          <path id="Caminho_3738" data-name="Caminho 3738" d="M304.386,398.8a20.158,20.158,0,0,0-4.3-4.507c-1.552-1.17-3.525-2.4-5.544-2.293-1.974.1-3.412,1.52-4.507,3.038-1.247,1.727-2.205,3.616-3.828,5.042-3.5,3.084-8.2,4.175-12.24,6.331-3.366,1.8-6.5,4.664-7.048,8.637a6.181,6.181,0,0,0,.178,2.547.43.43,0,0,0,.556.306,11.844,11.844,0,0,0,1.222,4.6c1.733,3.535,4.814,6.348,8.955,6.018a21.093,21.093,0,0,0,5.809-1.657l7.18-2.773,7.039-2.717a30.153,30.153,0,0,0,5.97-2.82C310.861,413.862,308.494,404.627,304.386,398.8Z" transform="translate(-266.857 -391.992)" fill="#93c3fd"/>
          <g id="Grupo_594" data-name="Grupo 594" clip-path="url(#clip-path-2)">
            <path id="Caminho_3739" data-name="Caminho 3739" d="M304.337,414.812a13.823,13.823,0,0,0-4.606.879c-1.631.474-3.234,1.034-4.83,1.611-6.268,2.265-13.052,4.876-19.7,2.607a9.458,9.458,0,0,1-.9-1.344,6.192,6.192,0,0,1-2.1-.456,10.724,10.724,0,0,1-4.31-3.568,7.351,7.351,0,0,1-2.441-1.4,3.376,3.376,0,0,1-1.245-2.311q-.162.394-.294.8a10.33,10.33,0,0,0-.106,6.194.442.442,0,0,0-.017.221,8.443,8.443,0,0,0,1.757,4.371,4.794,4.794,0,0,0,1.5,1.088,5.278,5.278,0,0,0,2.238,4.9c2.448,1.8,5.707,1.614,8.576,1.4a49.994,49.994,0,0,0,9.591-1.688,51.308,51.308,0,0,0,17.17-8.451c.943-.712,2.289-1.548,2.213-2.9C306.758,415.47,305.481,414.891,304.337,414.812Z" transform="translate(-267.383 -389.139)" fill="#93c3fd" opacity="0.5" style="mix-blend-mode: multiply;isolation: isolate"/>
          </g>
        </g>
        <path id="Caminho_3741" data-name="Caminho 3741" d="M279.735,411.833a6.765,6.765,0,0,0-4.8-1.276c-1.085.116-2.61.274-4.138.408h0c-.09.031-1.582.536-3.373,1.265a24.411,24.411,0,0,0-4.067-.357,25.723,25.723,0,0,0-2.841.161,3.945,3.945,0,0,0-2.159.575,1.2,1.2,0,0,0-.079,1.739,4.774,4.774,0,0,0,2.086.965c.295.1.59.193.883.291a61.268,61.268,0,0,0-5.906,5.541,28.512,28.512,0,0,0-3.558,5.432c-.406.795-.839,1.618-1.148,2.308-.585,1.306-.728,2.131.587,1.371a5,5,0,0,0,.934-.751c1.9-1.868,4.179-5.831,4.949-6.521.873-.786,3.711-2.8,3.906-2.889a16.5,16.5,0,0,0-2.386,2.412c-.664.927-1.351,2.13-2.852,4.5a22.554,22.554,0,0,0-1.655,2.981l0,0c-.467,1.11-.469,1.827.575,1.513a4.246,4.246,0,0,0,1.658-1.271c1.5-1.642,3.036-4.326,3.748-5.072a19.342,19.342,0,0,1,3.192-2.339,12.211,12.211,0,0,0-2.2,2.262,26.648,26.648,0,0,0-3.452,5.17c-.238.629-.192,1.027.36.949a5.215,5.215,0,0,0,2.474-1.191,15.819,15.819,0,0,0,2.415-2.531,8.632,8.632,0,0,1,2.849-2.4,22.219,22.219,0,0,0-3.664,4.624c-.365.765-.256,1.169.576.94,1.622-.444,4.791-3.306,5.953-4.4.038-.032.073-.067.106-.1s.067-.064.1-.091c.155-.147.242-.231.242-.231h0a35.787,35.787,0,0,1,2.894-2.584,5.872,5.872,0,0,1,4.956-1.38C281.255,422.786,284.432,415.379,279.735,411.833Z" transform="translate(-250.199 -389.186)" fill="#fbb990"/>
      </g>
      <ellipse id="Elipse_35" data-name="Elipse 35" cx="1.651" cy="1.651" rx="1.651" ry="1.651" transform="translate(56.158 8.379)" fill="#fff"/>
      <path id="Caminho_3742" data-name="Caminho 3742" d="M267.092,400.16a.892.892,0,1,1-.892-.891A.892.892,0,0,1,267.092,400.16Z" transform="translate(-213.546 -390.89)" fill="#fff"/>
      <path id="Caminho_3743" data-name="Caminho 3743" d="M246.944,424.9a1.166,1.166,0,1,1-1.166-1.165A1.166,1.166,0,0,1,246.944,424.9Z" transform="translate(-216.681 -387.184)" fill="#fff"/>
      <path id="Caminho_3744" data-name="Caminho 3744" d="M241.274,423.1a.857.857,0,1,1-.858-.858A.858.858,0,0,1,241.274,423.1Z" transform="translate(-217.446 -387.41)" fill="#fff"/>
      <path id="Caminho_3745" data-name="Caminho 3745" d="M272.557,428.069a1,1,0,1,1-1-1A1,1,0,0,1,272.557,428.069Z" transform="translate(-212.75 -386.679)" fill="#fff"/>
    </g>
  </g>
</svg>
