<svg xmlns="http://www.w3.org/2000/svg" xmlns:xlink="http://www.w3.org/1999/xlink" width="94" height="94.268" viewBox="0 0 94 94.268">
  <defs>
    <radialGradient id="radial-gradient" cx="0.5" cy="0.5" r="0.467" gradientTransform="translate(-0.08) scale(1.161 1)" gradientUnits="objectBoundingBox">
      <stop offset="0" stop-color="#f24338"/>
      <stop offset="0.178" stop-color="#f24338" stop-opacity="0.804"/>
      <stop offset="0.585" stop-color="#f24338" stop-opacity="0.376"/>
      <stop offset="0.868" stop-color="#f24338" stop-opacity="0.106"/>
      <stop offset="1" stop-color="#f24338" stop-opacity="0"/>
    </radialGradient>
  </defs>
  <g id="Grupo_715" data-name="Grupo 715" transform="translate(-39 -493.732)">
    <circle id="Elipse_38" data-name="Elipse 38" cx="47" cy="47" r="47" transform="translate(39 494)" fill="#ff784a" opacity="0.253"/>
    <g id="Grupo_704" data-name="Grupo 704" transform="translate(-389.317 118.374)">
      <g id="Grupo_695" data-name="Grupo 695" transform="translate(439.539 375.358)">
        <g id="Grupo_605" data-name="Grupo 605" transform="translate(22.301)">
          <g id="Grupo_601" data-name="Grupo 601" transform="translate(10.901 2.717)">
            <g id="Grupo_600" data-name="Grupo 600">
              <path id="Caminho_3750" data-name="Caminho 3750" d="M467.136,395.036l10.677,3.878s3.2,4.415,7.4,3.5c1.684-.366,3.528-1.589,5.392-4.293,6.509-9.457-9.191-22.557-18.626-20.355-4.628,1.078-5.883,5.255-5.957,9.231A29.35,29.35,0,0,0,467.136,395.036Z" transform="translate(-466.019 -377.525)" fill="#181818"/>
            </g>
          </g>
          <path id="Caminho_3751" data-name="Caminho 3751" d="M467.136,393.118,477.813,397s3.2,4.415,7.4,3.5c0-4.9-6.87-13.851-19.192-15.417A29.349,29.349,0,0,0,467.136,393.118Z" transform="translate(-455.118 -372.889)" fill="#fdc228"/>
          <g id="Grupo_602" data-name="Grupo 602" transform="translate(8.908)">
            <path id="Caminho_3752" data-name="Caminho 3752" d="M466.734,389.991a.671.671,0,0,1-.573-.458c-.342-1.042-3.275-10.267-.648-13.235a3.061,3.061,0,0,1,3.1-.848,2.792,2.792,0,0,1,2.081,1.6c1.638,3.545-2.8,11.685-3.309,12.6a.669.669,0,0,1-.584.342A.546.546,0,0,1,466.734,389.991Zm-.218-12.8c-1.513,1.709-.443,7.127.451,10.368,1.444-2.922,3.468-7.868,2.509-9.944a1.45,1.45,0,0,0-1.128-.846,3.217,3.217,0,0,0-.628-.068A1.52,1.52,0,0,0,466.515,377.186Z" transform="translate(-464.429 -375.358)" fill="#fdc228"/>
          </g>
          <g id="Grupo_603" data-name="Grupo 603" transform="translate(0 3.293)">
            <path id="Caminho_3753" data-name="Caminho 3753" d="M468.187,389.329c-.987-.359-9.666-3.614-10.747-7.365a2.792,2.792,0,0,1,.528-2.57,3.059,3.059,0,0,1,2.9-1.384c3.928.525,7.745,9.42,8.168,10.433a.67.67,0,0,1-.618.928A.656.656,0,0,1,468.187,389.329Zm-9.161-9.113a1.443,1.443,0,0,0-.3,1.377c.633,2.2,5.4,4.615,8.4,5.879-1.444-3.036-4.18-7.834-6.441-8.135a1.442,1.442,0,0,0-.193-.014A1.9,1.9,0,0,0,459.027,380.216Z" transform="translate(-457.325 -377.984)" fill="#fdc228"/>
          </g>
          <g id="Grupo_604" data-name="Grupo 604" transform="translate(25.652 8.883)">
            <path id="Caminho_3754" data-name="Caminho 3754" d="M483.034,402.561a8.432,8.432,0,0,0,6.6-5.025c3.887-8.105-5.41-14.945-5.5-15.013a.425.425,0,1,0-.5.688c.089.064,8.816,6.494,5.236,13.958-3.192,6.658-10.224,4.315-10.522,4.212a.424.424,0,1,0-.277.8A11.73,11.73,0,0,0,483.034,402.561Z" transform="translate(-477.783 -382.443)" fill="#181818"/>
          </g>
        </g>
        <g id="Grupo_607" data-name="Grupo 607" transform="translate(0 14.009)">
          <g id="Grupo_606" data-name="Grupo 606">
            <path id="Caminho_3755" data-name="Caminho 3755" d="M461.814,402.525s-4.167,17.5,1.621,28.821,11.6,14.411,3.291,17.928-17.766-3.182-24.111.3c-7.66,4.208.928-31.1,4.757-46.044,3.918-15.29,22.527-17,22.527-17Z" transform="translate(-439.539 -386.531)" fill="#181818"/>
          </g>
        </g>
        <g id="Grupo_611" data-name="Grupo 611" transform="translate(9.273 13.759)">
          <g id="Grupo_610" data-name="Grupo 610">
            <g id="Grupo_609" data-name="Grupo 609">
              <g id="Grupo_608" data-name="Grupo 608">
                <path id="Caminho_3756" data-name="Caminho 3756" d="M448.918,415.148s-7.445-17.054,6.515-25.081,28.062-1.964,31.819,7.277-2,15.321-2,15.321Z" transform="translate(-446.934 -386.332)" fill="#181818"/>
              </g>
            </g>
          </g>
        </g>
        <g id="Grupo_622" data-name="Grupo 622" transform="translate(26.887 60.378)">
          <g id="Grupo_616" data-name="Grupo 616">
            <g id="Grupo_615" data-name="Grupo 615">
              <g id="Grupo_614" data-name="Grupo 614">
                <g id="Grupo_613" data-name="Grupo 613">
                  <g id="Grupo_612" data-name="Grupo 612">
                    <path id="Caminho_3757" data-name="Caminho 3757" d="M469.281,441.716c-4.029,1.118-5.641-.668-6.878-2l-.833-7.225-.488-4.214-.1-.621,1.853-.206,13.67-3.942,1.849,8.679.878,4.116C477.474,437.967,475.139,440.088,469.281,441.716Z" transform="translate(-460.982 -423.512)" fill="#fbb990"/>
                  </g>
                </g>
              </g>
            </g>
          </g>
          <g id="Grupo_621" data-name="Grupo 621">
            <g id="Grupo_620" data-name="Grupo 620">
              <g id="Grupo_619" data-name="Grupo 619">
                <g id="Grupo_618" data-name="Grupo 618">
                  <g id="Grupo_617" data-name="Grupo 617">
                    <path id="Caminho_3758" data-name="Caminho 3758" d="M461.571,432.495c4.236,1.91,12.59,1.042,16.783-.3a.228.228,0,0,0,.039-.011l-1.888-8.668-13.67,3.942-1.853.206.1.621Z" transform="translate(-460.982 -423.512)" fill="#fb9476"/>
                  </g>
                </g>
              </g>
            </g>
          </g>
        </g>
        <g id="Grupo_640" data-name="Grupo 640" transform="translate(9.583 42.309)">
          <g id="Grupo_626" data-name="Grupo 626">
            <g id="Grupo_625" data-name="Grupo 625">
              <g id="Grupo_624" data-name="Grupo 624">
                <g id="Grupo_623" data-name="Grupo 623">
                  <path id="Caminho_3759" data-name="Caminho 3759" d="M453.913,409.472s-8.116-2.359-6.524,4.812c1.753,7.9,8.217,5.655,9.328,5.142Z" transform="translate(-447.182 -409.101)" fill="#fbb990"/>
                </g>
              </g>
            </g>
          </g>
          <g id="Grupo_631" data-name="Grupo 631" transform="translate(1.604 9.201)">
            <g id="Grupo_630" data-name="Grupo 630">
              <g id="Grupo_629" data-name="Grupo 629">
                <g id="Grupo_628" data-name="Grupo 628">
                  <g id="Grupo_627" data-name="Grupo 627">
                    <path id="Caminho_3760" data-name="Caminho 3760" d="M459.418,420.725a5.508,5.508,0,1,1-7.519-4.286l.011.019c.386.1.469.4.5.723a4.636,4.636,0,1,0,4.578.858,4.816,4.816,0,0,0-.675-.481,3.95,3.95,0,0,0,.592-.671,5.238,5.238,0,0,1,.631.461A5.478,5.478,0,0,1,459.418,420.725Z" transform="translate(-448.461 -416.439)" fill="#fff"/>
                  </g>
                </g>
              </g>
            </g>
          </g>
          <g id="Grupo_635" data-name="Grupo 635" transform="translate(1.984 2.66)">
            <g id="Grupo_634" data-name="Grupo 634">
              <g id="Grupo_633" data-name="Grupo 633">
                <g id="Grupo_632" data-name="Grupo 632">
                  <path id="Caminho_3761" data-name="Caminho 3761" d="M452.6,416.545l.046-.009a.441.441,0,0,0,.316-.538,7.2,7.2,0,0,0-3.575-4.736.441.441,0,0,0-.367.8,6.332,6.332,0,0,1,3.09,4.157A.44.44,0,0,0,452.6,416.545Z" transform="translate(-448.764 -411.222)" fill="#fb9476"/>
                </g>
              </g>
            </g>
          </g>
          <g id="Grupo_639" data-name="Grupo 639" transform="translate(2.412 4.54)">
            <g id="Grupo_638" data-name="Grupo 638">
              <g id="Grupo_637" data-name="Grupo 637">
                <g id="Grupo_636" data-name="Grupo 636">
                  <path id="Caminho_3762" data-name="Caminho 3762" d="M449.611,414.7a.444.444,0,0,0,.311-.206,1.9,1.9,0,0,1,1.332-.89.441.441,0,0,0-.01-.881,2.773,2.773,0,0,0-2.074,1.313.44.44,0,0,0,.441.665Z" transform="translate(-449.106 -412.722)" fill="#fb9476"/>
                </g>
              </g>
            </g>
          </g>
        </g>
        <g id="Grupo_644" data-name="Grupo 644" transform="translate(11.39 23.146)">
          <g id="Grupo_643" data-name="Grupo 643">
            <g id="Grupo_642" data-name="Grupo 642">
              <g id="Grupo_641" data-name="Grupo 641">
                <path id="Caminho_3763" data-name="Caminho 3763" d="M449.092,412.369a47.37,47.37,0,0,0,2.249,8.222c.436,1.177.914,2.318,1.422,3.416,3.577,7.73,8.718,13.3,12.825,13.782,6.5.764,13.883-2.412,17.5-10.892a20.381,20.381,0,0,0,1.506-5.029c.04-.273.079-.555.113-.84,1.061-8.81-1.175-21.368-1.175-21.368-5.328-7.956-16.784-5.836-23.431-4.741S446.776,399.317,449.092,412.369Z" transform="translate(-448.623 -393.818)" fill="#fbb990"/>
              </g>
            </g>
          </g>
        </g>
        <g id="Grupo_649" data-name="Grupo 649" transform="translate(14.109 49.105)">
          <g id="Grupo_648" data-name="Grupo 648">
            <g id="Grupo_647" data-name="Grupo 647">
              <g id="Grupo_646" data-name="Grupo 646">
                <g id="Grupo_645" data-name="Grupo 645">
                  <path id="Caminho_3764" data-name="Caminho 3764" d="M450.791,415.335c.436,1.177.914,2.318,1.422,3.416a12.314,12.314,0,0,0,1.778-.122c2.762-.39,4.875-1.6,4.718-2.7s-2.523-1.674-5.284-1.284A11.059,11.059,0,0,0,450.791,415.335Z" transform="translate(-450.791 -414.521)" fill="#fb9476"/>
                </g>
              </g>
            </g>
          </g>
        </g>
        <g id="Grupo_654" data-name="Grupo 654" transform="translate(34.383 45.497)">
          <g id="Grupo_653" data-name="Grupo 653">
            <g id="Grupo_652" data-name="Grupo 652">
              <g id="Grupo_651" data-name="Grupo 651">
                <g id="Grupo_650" data-name="Grupo 650">
                  <path id="Caminho_3765" data-name="Caminho 3765" d="M466.969,414.5c.157,1.112,2.548,1.693,5.339,1.3s4.926-1.619,4.768-2.731-2.548-1.691-5.339-1.3S466.811,413.386,466.969,414.5Z" transform="translate(-466.96 -411.644)" fill="#fb9476"/>
                </g>
              </g>
            </g>
          </g>
        </g>
        <g id="Grupo_672" data-name="Grupo 672" transform="translate(44.909 37.148)">
          <g id="Grupo_658" data-name="Grupo 658" transform="translate(0.979)">
            <g id="Grupo_657" data-name="Grupo 657">
              <g id="Grupo_656" data-name="Grupo 656">
                <g id="Grupo_655" data-name="Grupo 655">
                  <path id="Caminho_3766" data-name="Caminho 3766" d="M476.165,409.155a2.866,2.866,0,0,1,1.156-2.722c2.13-1.55,4.983-2.427,6.4.39,2.624,5.229-2.143,12.237-6.267,11.312Z" transform="translate(-476.136 -404.985)" fill="#d4e7fe"/>
                </g>
              </g>
            </g>
          </g>
          <g id="Grupo_663" data-name="Grupo 663" transform="translate(0 12.051)">
            <g id="Grupo_662" data-name="Grupo 662">
              <g id="Grupo_661" data-name="Grupo 661">
                <g id="Grupo_660" data-name="Grupo 660">
                  <g id="Grupo_659" data-name="Grupo 659">
                    <path id="Caminho_3767" data-name="Caminho 3767" d="M475.5,415.352c.079.074.158.145.24.211a4.773,4.773,0,0,0,.725.5,5.225,5.225,0,0,0,1.348.53c.041-.277.08-.555.112-.843a4.337,4.337,0,0,1-.954-.345,3.986,3.986,0,0,1-.762-.468c-.1-.078-.2-.162-.29-.248a.3.3,0,0,0-.489.07A.48.48,0,0,0,475.5,415.352Z" transform="translate(-475.355 -414.596)" fill="#c0dcfe"/>
                  </g>
                </g>
              </g>
            </g>
          </g>
          <g id="Grupo_667" data-name="Grupo 667" transform="translate(3.627 2.854)">
            <g id="Grupo_666" data-name="Grupo 666">
              <g id="Grupo_665" data-name="Grupo 665">
                <g id="Grupo_664" data-name="Grupo 664">
                  <path id="Caminho_3768" data-name="Caminho 3768" d="M478.757,413.923a.442.442,0,0,0,.375-.446,7.1,7.1,0,0,1,2.175-5.433.441.441,0,0,0-.558-.683,7.861,7.861,0,0,0-2.5,6.138.442.442,0,0,0,.451.43Z" transform="translate(-478.248 -407.262)" fill="#c0dcfe"/>
                </g>
              </g>
            </g>
          </g>
          <g id="Grupo_671" data-name="Grupo 671" transform="translate(4.163 5.465)">
            <g id="Grupo_670" data-name="Grupo 670">
              <g id="Grupo_669" data-name="Grupo 669">
                <g id="Grupo_668" data-name="Grupo 668">
                  <path id="Caminho_3769" data-name="Caminho 3769" d="M481.459,410.921a.441.441,0,0,0,.224-.769,3.249,3.249,0,0,0-2.681-.731.441.441,0,1,0,.227.851,2.4,2.4,0,0,1,1.877.547A.44.44,0,0,0,481.459,410.921Z" transform="translate(-478.675 -409.344)" fill="#c0dcfe"/>
                </g>
              </g>
            </g>
          </g>
        </g>
        <g id="Grupo_676" data-name="Grupo 676" transform="translate(25.069 44.132)">
          <g id="Grupo_675" data-name="Grupo 675">
            <g id="Grupo_674" data-name="Grupo 674">
              <g id="Grupo_673" data-name="Grupo 673">
                <path id="Caminho_3770" data-name="Caminho 3770" d="M462.372,418.5c-3-1.421-2.868-2.119-2.825-2.349.124-.666.751-4.027.977-5.235a.438.438,0,0,1,.513-.351h0a.44.44,0,0,1,.354.513c-.218,1.169-.814,4.361-.964,5.165a8.414,8.414,0,0,0,2.312,1.456.447.447,0,0,1,.26.471.442.442,0,0,1-.626.33Zm-1.961-2.185h0Z" transform="translate(-459.533 -410.555)" fill="#fb9476"/>
              </g>
            </g>
          </g>
        </g>
        <g id="Grupo_680" data-name="Grupo 680" transform="translate(15.811 36.86)">
          <g id="Grupo_679" data-name="Grupo 679">
            <g id="Grupo_678" data-name="Grupo 678">
              <g id="Grupo_677" data-name="Grupo 677">
                <path id="Caminho_3771" data-name="Caminho 3771" d="M452.7,411.078a8.906,8.906,0,0,1,.94-1.508,8.652,8.652,0,0,1,1.2-1.274,6.643,6.643,0,0,1,1.393-.945,6.385,6.385,0,0,1,1.521-.544l.053-.013a1.036,1.036,0,0,0-.515-2.006,1.128,1.128,0,0,0-.186.068,8.245,8.245,0,0,0-3.227,2.545,9.826,9.826,0,0,0-1.041,1.676,9.689,9.689,0,0,0-.681,1.826.285.285,0,0,0,.533.194Z" transform="translate(-452.149 -404.755)" fill="#181818"/>
              </g>
            </g>
          </g>
        </g>
        <g id="Grupo_684" data-name="Grupo 684" transform="translate(31.288 35.128)">
          <g id="Grupo_683" data-name="Grupo 683">
            <g id="Grupo_682" data-name="Grupo 682">
              <g id="Grupo_681" data-name="Grupo 681">
                <path id="Caminho_3772" data-name="Caminho 3772" d="M473.308,407.648a10.939,10.939,0,0,0-1.483-1.633,11.269,11.269,0,0,0-1.8-1.324,9.33,9.33,0,0,0-4.432-1.315,1.034,1.034,0,1,0-.133,2.064,1.227,1.227,0,0,0,.167,0l.066-.006a7.423,7.423,0,0,1,1.873-.019,7.667,7.667,0,0,1,1.886.463,9.97,9.97,0,0,1,1.8.89,10.307,10.307,0,0,1,1.614,1.244l.014.015a.285.285,0,0,0,.428-.375Z" transform="translate(-464.492 -403.374)" fill="#181818"/>
              </g>
            </g>
          </g>
        </g>
        <g id="Grupo_688" data-name="Grupo 688" transform="translate(8.927 21.295)">
          <g id="Grupo_687" data-name="Grupo 687">
            <g id="Grupo_686" data-name="Grupo 686">
              <g id="Grupo_685" data-name="Grupo 685">
                <path id="Caminho_3773" data-name="Caminho 3773" d="M478.333,399.044s-8.171,11.153-27.265,10.608c-10.273-.293-1.35-16.334,13.962-17.236S478.333,399.044,478.333,399.044Z" transform="translate(-446.659 -392.341)" fill="#181818"/>
              </g>
            </g>
          </g>
        </g>
        <path id="Caminho_3774" data-name="Caminho 3774" d="M450.529,405.1s-1.147,8.506.821,13.059c0,0-3.693-7.614-2.54-12.427S450.529,405.1,450.529,405.1Z" transform="translate(-437.242 -368.236)" fill="#181818"/>
        <g id="Grupo_690" data-name="Grupo 690" transform="translate(23.078 14.602)">
          <g id="Grupo_689" data-name="Grupo 689">
            <path id="Caminho_3775" data-name="Caminho 3775" d="M470.351,400.432s9.1,15.514,6.874,28.036-5.476,22.493,3.5,23.428c8.882.925,14.776-2.564,22.73.582h0l.25.1a2.3,2.3,0,0,0,.568.162c1.377.178,1.641-1.621,1.125-4.689-.184-1.085-.463-2.326-.825-3.7a195.35,195.35,0,0,0-8.865-24.151c-2.94-6.852-6.065-13.487-8.66-18.408-.945-1.792-1.822-3.355-2.592-4.622-8.215-13.475-26.513-9.676-26.513-9.676Z" transform="translate(-457.944 -387.004)" fill="#181818"/>
          </g>
        </g>
        <g id="Grupo_691" data-name="Grupo 691" transform="translate(51.583 29.356)">
          <path id="Caminho_3776" data-name="Caminho 3776" d="M480.731,399.4c.084.153,4.717,8.677,9.207,17.819,3.664,7.459,7.23,15.333,8.154,19.415a31.027,31.027,0,0,1,.711,4.736,16.858,16.858,0,0,1-1.117,8.124l.25.1a2.3,2.3,0,0,0,.568.162,14.625,14.625,0,0,0,1.125-4.689,27.676,27.676,0,0,0-.708-8.62c-2.081-9.2-16.818-36.3-17.443-37.453a.425.425,0,0,0-.746.407Z" transform="translate(-480.678 -398.771)" fill="#181818"/>
        </g>
        <path id="Caminho_3777" data-name="Caminho 3777" d="M460.561,406.243s9.914-3.01,12.739,7.888-6.949,15.792-13.148,14.594S449.875,408.091,460.561,406.243Z" transform="translate(-435.88 -367.614)" opacity="0.4" fill="url(#radial-gradient)"/>
        <g id="Grupo_692" data-name="Grupo 692" transform="translate(26.921 36.546)">
          <path id="Caminho_3778" data-name="Caminho 3778" d="M461.009,412.155a7.65,7.65,0,1,1,7.65,7.65A7.658,7.658,0,0,1,461.009,412.155Zm.925,0a6.724,6.724,0,1,0,6.724-6.724A6.732,6.732,0,0,0,461.934,412.155Z" transform="translate(-461.009 -404.505)" fill="#fff"/>
        </g>
        <g id="Grupo_693" data-name="Grupo 693" transform="translate(9.971 39.982)">
          <path id="Caminho_3779" data-name="Caminho 3779" d="M447.491,414.895a7.65,7.65,0,1,1,7.65,7.65A7.659,7.659,0,0,1,447.491,414.895Zm.925,0a6.724,6.724,0,1,0,6.724-6.723A6.732,6.732,0,0,0,448.416,414.895Z" transform="translate(-447.491 -407.245)" fill="#fff"/>
        </g>
        <g id="Grupo_694" data-name="Grupo 694" transform="translate(24.062 43.892)">
          <path id="Caminho_3780" data-name="Caminho 3780" d="M459.505,412.117a2.04,2.04,0,0,1,2.381-.7l.318-.868a2.94,2.94,0,0,0-3.476,1.066Z" transform="translate(-458.729 -410.364)" fill="#fff"/>
        </g>
      </g>
      <g id="Grupo_699" data-name="Grupo 699" transform="translate(455.891 419.773)">
        <g id="Grupo_698" data-name="Grupo 698">
          <g id="Grupo_697" data-name="Grupo 697">
            <g id="Grupo_696" data-name="Grupo 696">
              <path id="Caminho_3781" data-name="Caminho 3781" d="M456.918,413.161c.054,1.344-.508,2.458-1.256,2.489s-1.406-1.036-1.461-2.38a3.884,3.884,0,0,1,.2-1.428,1.852,1.852,0,0,1-1.819-.707,8.959,8.959,0,0,0,2.57-.275c.193-.048.311-.079.311-.079C456.21,410.75,456.864,411.813,456.918,413.161Z" transform="translate(-452.58 -410.78)" fill="#181818"/>
            </g>
          </g>
        </g>
      </g>
      <g id="Grupo_703" data-name="Grupo 703" transform="translate(472.069 417.29)">
        <g id="Grupo_702" data-name="Grupo 702">
          <g id="Grupo_701" data-name="Grupo 701">
            <g id="Grupo_700" data-name="Grupo 700">
              <path id="Caminho_3782" data-name="Caminho 3782" d="M465.517,411.511c.167,1.335.905,2.341,1.649,2.249s1.216-1.253,1.049-2.588a3.908,3.908,0,0,0-.429-1.375,1.851,1.851,0,0,0,1.676-1,8.974,8.974,0,0,1-2.579.152c-.2-.015-.321-.028-.321-.028C465.819,409.016,465.349,410.173,465.517,411.511Z" transform="translate(-465.483 -408.8)" fill="#181818"/>
            </g>
          </g>
        </g>
      </g>
      <path id="Caminho_3783" data-name="Caminho 3783" d="M484.124,417.74c-.718,1.911-1.421,3.828-2.158,5.731-.252.648-.532,1.288-.839,1.911a42.256,42.256,0,0,0-.091-5.214,30.581,30.581,0,0,0-.609-5.77,2.656,2.656,0,0,0-.355-.8q1.546-2.456,3.093-4.911c.411-.653-.622-1.254-1.032-.6q-1.5,2.389-3.01,4.779a2.217,2.217,0,0,0-1.135-.033c-1.525.325-3.028.981-4.538,1.412a73.356,73.356,0,0,1-21.24,2.815.554.554,0,0,0-.532.45,2.878,2.878,0,0,0-1.324,1.234,5.921,5.921,0,0,0-.287,4.448c.426,1.619,1.15,3.182,1.665,4.735,1.906,5.743,11.505,7.837,16.106,7.048a26.392,26.392,0,0,0,8.155-2.4,10.285,10.285,0,0,0,4.091-3.6.5.5,0,0,0,.073-.049,14.274,14.274,0,0,0,2.834-4.807c.8-2.006,1.527-4.04,2.286-6.06C485.548,417.336,484.392,417.024,484.124,417.74Z" transform="translate(2.598 8.236)" fill="#fff"/>
    </g>
  </g>
</svg>
