<svg xmlns="http://www.w3.org/2000/svg" width="95" height="94" viewBox="0 0 95 94">
  <g id="Grupo_719" data-name="Grupo 719" transform="translate(-41 -422)">
    <circle id="Elipse_37" data-name="Elipse 37" cx="47" cy="47" r="47" transform="translate(42 422)" fill="#ff784a" opacity="0.253"/>
    <g id="Grupo_599" data-name="Grupo 599" transform="translate(-293.596 44.993)">
      <g id="Grupo_598" data-name="Grupo 598" transform="translate(334.596 405.643)">
        <path id="Caminho_3746" data-name="Caminho 3746" d="M428.837,424.094V410.841c0-.24-.2-.357-.407-.38a.317.317,0,0,0-.309-.323q-18.669-2.471-37.1-6.119-5.167-1.024-10.307-2.139a.44.44,0,0,0-.44.142.487.487,0,0,0-.349.031q-17.037,8.238-34.714,15.386-5,2.018-10.039,3.948c-.036.013-.033.042-.061.059-.332.17-.4.662.07.733l.012,0v16.145c0,.533.941.533.941,0v-.12c.05.033.078.08.158.09q18.787,2.414,37.627,4.5,5.293.584,10.593,1.146c.283.053.564.111.844.176a.521.521,0,0,0,.645.187q16.995-7.254,33.677-15.054C422.463,427.949,429.21,424.159,428.837,424.094Z" transform="translate(-334.476 -401.868)" fill="#fb9476"/>
        <path id="Caminho_3747" data-name="Caminho 3747" d="M385.282,421.076a.45.45,0,0,0-.446-.434q-19.457-1.406-38.771-4.006-5.384-.726-10.751-1.544a.458.458,0,0,0-.557.49c-.016.043-.059.068-.059.121V431.7c-.167.224-.152.539.222.583l39.338,4.672,11.173,1.326a.5.5,0,0,0,.567-.389.355.355,0,0,0,.163-.3V421.2C386.161,420.725,385.44,420.7,385.282,421.076Z" transform="translate(-334.596 -395.52)" fill="#f24338"/>
        <path id="Caminho_3748" data-name="Caminho 3748" d="M411.289,407.264c-5.7,1.536-38.66,16.406-41.99,17.073a.377.377,0,0,0-.158.691c-.031.053-.081.092-.081.164v16.093a.417.417,0,1,0,.258.792c11.552-4.183,22.191-9.977,33.232-15.06,3.067-1.411,10.171-4.35,10.171-4.755l-.046-14.64C412.673,407.152,411.544,407.2,411.289,407.264Z" transform="translate(-318.19 -399.297)" fill="#fa7764"/>
      </g>
      <path id="Caminho_3749" data-name="Caminho 3749" d="M373.2,397.792c2.33,3.678-4.538,7.725-10.593,4.6s-8.109,4.966-5.166,6.8c2.383,1.489,4.9,7.646,5.145,10.479-.53.342-.863.558-.918.585-.817.4-1.819.891-2.117,1.831a1.246,1.246,0,0,0,.111,1.07,4.982,4.982,0,0,0,1.338.873,16.236,16.236,0,0,0,2.9,1.351,9.369,9.369,0,0,0,6.205.164c2.092-.753,16.73-7.921,16.025-10.23-.265-.867-1.195-1.306-1.948-1.677-.266-.13-.546-.225-.82-.336.049-3.237.577-10.719,4.244-15.515C392.388,391.538,370.868,394.114,373.2,397.792Z" transform="translate(10.334 0)" fill="#fff"/>
    </g>
  </g>
</svg>
