<svg xmlns="http://www.w3.org/2000/svg" width="22.376" height="29.187" viewBox="0 0 22.376 29.187">
  <g id="document" transform="translate(-0.109)">
    <path id="Caminho_3710" data-name="Caminho 3710" d="M.109,57.389V82.684A.486.486,0,0,0,.6,83.17H19.081a.486.486,0,0,0,.486-.486V62.253c0-.011-.005-.02-.006-.031a.459.459,0,0,0-.025-.125c-.005-.016-.009-.031-.016-.046a.481.481,0,0,0-.1-.142l-4.864-4.864a.472.472,0,0,0-.143-.1l-.045-.016a.482.482,0,0,0-.126-.025c-.008,0-.018,0-.028,0H.6A.486.486,0,0,0,.109,57.389Zm17.8,4.378H14.7v-3.2ZM1.082,57.875H13.73v4.378a.486.486,0,0,0,.486.486h4.378V82.2H1.082Zm0,0" transform="translate(0 -53.984)" fill="#fff"/>
    <path id="Caminho_3711" data-name="Caminho 3711" d="M74.52,25.295v.973h1.459a.486.486,0,0,0,.486-.486V.486A.486.486,0,0,0,75.979,0H57.494a.486.486,0,0,0-.486.486V1.946h.973V.973H75.493V25.295Zm0,0" transform="translate(-53.98)" fill="#fff"/>
    <path id="Caminho_3712" data-name="Caminho 3712" d="M75.977,189.668H87.651v.973H75.977Zm0,0" transform="translate(-71.976 -179.939)" fill="#fff"/>
    <path id="Caminho_3713" data-name="Caminho 3713" d="M75.977,132.766h3.892v.973H75.977Zm0,0" transform="translate(-71.976 -125.955)" fill="#fff"/>
    <path id="Caminho_3714" data-name="Caminho 3714" d="M75.977,246.566H83.76v.973H75.977Zm0,0" transform="translate(-71.976 -233.919)" fill="#fff"/>
    <path id="Caminho_3715" data-name="Caminho 3715" d="M246.676,246.566h2.919v.973h-2.919Zm0,0" transform="translate(-233.919 -233.919)" fill="#fff"/>
    <path id="Caminho_3716" data-name="Caminho 3716" d="M75.977,303.465H87.651v.973H75.977Zm0,0" transform="translate(-71.976 -287.899)" fill="#fff"/>
    <path id="Caminho_3717" data-name="Caminho 3717" d="M75.977,417.266H87.651v.973H75.977Zm0,0" transform="translate(-71.976 -395.862)" fill="#fff"/>
    <path id="Caminho_3718" data-name="Caminho 3718" d="M161.324,360.367h7.3v.973h-7.3Zm0,0" transform="translate(-152.945 -341.882)" fill="#fff"/>
    <path id="Caminho_3719" data-name="Caminho 3719" d="M75.977,360.367h3.405v.973H75.977Zm0,0" transform="translate(-71.976 -341.882)" fill="#fff"/>
    <path id="Caminho_3720" data-name="Caminho 3720" d="M75.977,474.168h1.946v.973H75.977Zm0,0" transform="translate(-71.976 -449.846)" fill="#fff"/>
    <path id="Caminho_3721" data-name="Caminho 3721" d="M132.875,474.168h8.756v.973h-8.756Zm0,0" transform="translate(-125.955 -449.846)" fill="#fff"/>
  </g>
</svg>
