<svg xmlns="http://www.w3.org/2000/svg" xmlns:xlink="http://www.w3.org/1999/xlink" width="337" height="376.68" viewBox="0 0 337 376.68">
  <defs>
    <linearGradient id="linear-gradient" x1="0.538" y1="-0.159" x2="0.522" y2="1.225" gradientUnits="objectBoundingBox">
      <stop offset="0" stop-color="#00d6fe"/>
      <stop offset="1" stop-color="#007ee7"/>
    </linearGradient>
  </defs>
  <g id="Grupo_730" data-name="Grupo 730" transform="translate(-18 -39.32)">
    <circle id="Elipse_54" data-name="Elipse 54" cx="168.5" cy="168.5" r="168.5" transform="translate(18 79)" opacity="0.6" fill="url(#linear-gradient)"/>
    <g id="Grupo_725" data-name="Grupo 725" transform="translate(79.665 39.32)">
      <path id="Caminho_3787" data-name="Caminho 3787" d="M417.023,158.878s9.808,27.995,8.407,35.927-18.256,33.539-30.883,33.371-26.193-28.87-26.193-28.87Z" transform="translate(-271.635 -67.868)" fill="#373061" fill-rule="evenodd"/>
      <path id="Caminho_3788" data-name="Caminho 3788" d="M337.738,130.649l-.234,8.166,7.152,12.7s.555,7.6,8.027,20.43,10.975,18.431,9.574,22.4c-14.815,41.936-63.659,37.535-54.995,26.13a64.054,64.054,0,0,0,17.474-51.052h0a12.327,12.327,0,0,0,7.72-23.017Z" transform="translate(-271.389 -67.756)" fill="#373061" fill-rule="evenodd"/>
      <path id="Caminho_3789" data-name="Caminho 3789" d="M334.988,229.409s-20.951.549-26.438,14.348c-2.908,7.308-19.641,49.078-28.459,73.393-18.7,51.582,16.545,78.332,35.862,33.22L311.8,330.622l37.773-88.582Z" transform="translate(-271.265 -68.147)" fill="#e6b5a3" fill-rule="evenodd"/>
      <path id="Caminho_3790" data-name="Caminho 3790" d="M321.883,232.082c-1.442.508-4.407.644-11.683,7.1s-14.146,31.763-19,43.608-15.627,39.571-17.514,48.724-7.275,36.877,8.352,40.916,22.1-.27,28.291-8.076,42.3-113.12,42.3-113.12Z" transform="translate(-271.251 -68.157)" fill="#fff" fill-rule="evenodd"/>
      <path id="Caminho_3791" data-name="Caminho 3791" d="M380.76,158.253h0A23.047,23.047,0,0,1,405.085,179.8l1.94,32.314a23.04,23.04,0,0,1-21.568,24.3h0a23.047,23.047,0,0,1-24.324-21.548l-1.94-32.314A23.042,23.042,0,0,1,380.76,158.253Z" transform="translate(-271.598 -67.865)" fill="#d68982" fill-rule="evenodd"/>
      <path id="Caminho_3792" data-name="Caminho 3792" d="M406.8,214.765l51.617,13.745s-13.8,32.571-.284,79.778c0,0-20.957,69.012-21.606,75.988s3.992,13.1,4.213,16.821-3.373,6.07-3.682,9.823a17.02,17.02,0,0,0,.506,3.1A168.187,168.187,0,0,1,309,413.464c1.124-3.862,1.8-6.179,1.8-6.179a52.983,52.983,0,0,1-.987-6.41c-.055-2,2.661-5.7,2.661-5.7s-15.009-80.932-15.442-88.107,14.664-27.026,21.837-36.525,12.355-47.692,12.355-47.692l29.658-7.765S377.975,232.057,406.8,214.765Z" transform="translate(-271.353 -68.089)" fill="#1f9ab1" fill-rule="evenodd"/>
      <path id="Caminho_3793" data-name="Caminho 3793" d="M410.562,296.883s-.292,34.728-35.893,32.346c-11.587-.776-22.924-1.642-32.949-2.458-14.78-1.159-10.357-11.827-10.357-11.827l24.259-63.692-3.932-4.17-23.362,11.365-12.2,66.125c-6.478-.586-10.328-.961-10.328-.961s-3.592-.294-6.987-4.654h0c1.512,9.083,3.8,21.988,6.07,34.6,31.268.94,81.755.868,81.755.868s11.114-1.01,23.234,12.109c9.147,9.9,23.466,24.539,29.947,31.127-1.386-3.59-3.757-8.25-3.282-13.368.649-6.975,21.606-75.987,21.606-75.987a151.525,151.525,0,0,1-5.748-33.992l-34.949,62.7-6.878-40.136Zm13.7-77.451,20.076,5.346c-22.908,16.383-44.006,7.447-44.006,7.447l14.912-8.65S418.988,221.778,424.258,219.432Z" transform="translate(-271.36 -68.107)" fill="#187f98" fill-rule="evenodd"/>
      <path id="Caminho_3794" data-name="Caminho 3794" d="M458.829,228.561s16.482,8.2,15.91,29.517-21.623,59.771-34.508,96.089c-.937,2.01.341-6.97-20-13.23s-17.927-16.569-17.927-16.569l22.246-70.485S433.02,221.688,458.829,228.561Z" transform="translate(-271.769 -68.139)" fill="#e6b5a3" fill-rule="evenodd"/>
      <path id="Caminho_3795" data-name="Caminho 3795" d="M354.686,217.065a1.19,1.19,0,1,1,2.1-1.128c.021.038,6.693,13.051,25.767,12.365a46.786,46.786,0,0,0,30.563-12.516,1.189,1.189,0,0,1,1.706,1.656,49.35,49.35,0,0,1-32.185,13.235C362.051,231.417,354.705,217.106,354.686,217.065Z" transform="translate(-271.58 -68.091)" fill="#4d6a99" fill-rule="evenodd"/>
      <path id="Caminho_3796" data-name="Caminho 3796" d="M318.692,272.967a1.19,1.19,0,0,1-1.743-1.621c.048-.052,16.8-18.038,20.945-26.922a1.192,1.192,0,0,1,2.162,1C335.763,254.643,318.74,272.914,318.692,272.967Z" transform="translate(-271.43 -68.203)" fill="#4d6a99" fill-rule="evenodd"/>
      <path id="Caminho_3797" data-name="Caminho 3797" d="M345.284,336.231a1.191,1.191,0,1,1-2.219.866c-.015-.039-5.4-13.931-3.97-21.678,1.39-7.549,10.819-30.16,10.846-30.225a1.19,1.19,0,1,1,2.2.912c-.027.063-9.363,22.454-10.706,29.741C340.127,322.933,345.269,336.194,345.284,336.231Z" transform="translate(-271.518 -68.364)" fill="#4d6a99" fill-rule="evenodd"/>
      <path id="Caminho_3798" data-name="Caminho 3798" d="M309.727,408.426a1.191,1.191,0,0,1,2.256-.763l3.061,8.944q-1.455-.547-2.9-1.121Z" transform="translate(-271.403 -68.848)" fill="#4d6a99" fill-rule="evenodd"/>
      <path id="Caminho_3799" data-name="Caminho 3799" d="M328.736,157.74c-.3.072-.593.152-.883.245l-.01,0h0a12.342,12.342,0,1,0,10.5,1.415c.684,3.588.568,8.126-4.01,9.05l-.594-7.084C333.5,158.5,330.694,157.459,328.736,157.74Z" transform="translate(-271.441 -67.863)" fill="#d68982" fill-rule="evenodd"/>
      <path id="Caminho_3800" data-name="Caminho 3800" d="M414.632,148c.306.009.613.029.913.06l.01,0h0a12.339,12.339,0,1,1-9.99,3.517c.057,3.651,1.1,8.074,5.767,8.047l-.863-7.057C410.121,149.714,412.657,148.124,414.632,148Z" transform="translate(-271.767 -67.825)" fill="#d68982" fill-rule="evenodd"/>
      <path id="Caminho_3801" data-name="Caminho 3801" d="M361.657,92.282h0a42.337,42.337,0,0,0-37.708,46.3l3.925,38.186a42.361,42.361,0,0,0,46.342,37.671h0a42.34,42.34,0,0,0,37.7-46.3l-3.927-38.185A42.356,42.356,0,0,0,361.657,92.282Z" transform="translate(-271.458 -67.604)" fill="#e7baa8" fill-rule="evenodd"/>
      <path id="Caminho_3802" data-name="Caminho 3802" d="M358.164,170.179c1.074,2.865,2.948,8.053,2.8,8.933-.211,1.226-6.439,2.459-8.09.878-1.1-1.054.216-5.782,1.375-8.969C355.827,166.675,356.72,166.324,358.164,170.179Z" transform="translate(-271.572 -67.902)" fill="#f0d3c8" fill-rule="evenodd"/>
      <path id="Caminho_3803" data-name="Caminho 3803" d="M386.637,97.493a41.973,41.973,0,0,0-22.726-5.38l-33.937,50.258s.357,21.836,11.937,17.441c22.107-8.391,29.758-36.321,48.575-35.573C400.349,111.41,394.907,102.884,386.637,97.493Z" transform="translate(-271.483 -67.604)" fill="#d68982" fill-rule="evenodd"/>
      <path id="Caminho_3804" data-name="Caminho 3804" d="M406.537,179.712a.52.52,0,1,1-.966-.384c.005-.01,1.659-3.923,2.682-13.07.519-4.66.961-7.482,1.664-9.283a5.418,5.418,0,0,1,1.395-2.156,16.877,16.877,0,0,0-.123,1.7l0,.177a6.557,6.557,0,0,0-.3.656c-.664,1.7-1.092,4.455-1.6,9.017-1.037,9.3-2.741,13.332-2.748,13.342Zm9.138-7.115c-.361.042-.718.067-1.076.077-.716,2.782-1.847,5.2-3.506,6.629a.519.519,0,0,0,.677.786C413.655,178.466,414.91,175.716,415.675,172.6Z" transform="translate(-271.782 -67.852)" fill="#fff" fill-rule="evenodd"/>
      <path id="Caminho_3805" data-name="Caminho 3805" d="M384.727,174.293a9.276,9.276,0,1,0,10.024,8.472A9.281,9.281,0,0,0,384.727,174.293Z" transform="translate(-271.666 -67.929)" fill="#d68982" fill-rule="evenodd"/>
      <path id="Caminho_3806" data-name="Caminho 3806" d="M339.771,177.993a9.274,9.274,0,1,0,10.027,8.469A9.277,9.277,0,0,0,339.771,177.993Z" transform="translate(-271.488 -67.943)" fill="#d68982" fill-rule="evenodd"/>
      <path id="Caminho_3807" data-name="Caminho 3807" d="M333.476,158.365a1.542,1.542,0,0,1-1.659-2.6c3.758-2.452,9.041-3.232,13.173-1.3a1.544,1.544,0,1,1-1.31,2.8C340.359,155.709,336.487,156.529,333.476,158.365Z" transform="translate(-271.488 -67.846)" fill="#1a103a" fill-rule="evenodd"/>
      <path id="Caminho_3808" data-name="Caminho 3808" d="M386.24,153.361c-3.017-1.835-6.893-2.649-10.214-1.091a1.543,1.543,0,1,1-1.309-2.794c4.128-1.94,9.411-1.167,13.167,1.277a1.541,1.541,0,1,1-1.643,2.608Z" transform="translate(-271.656 -67.826)" fill="#373061" fill-rule="evenodd"/>
      <path id="Caminho_3809" data-name="Caminho 3809" d="M329.618,185.426l18.368-9.245s11.484-5.154,26.894-.361,29.4,2.7,32.454-.039c0,0,3.336-2.816,4.539,1.885s-2.549,18.933-14.767,30.418-23.239,10.168-33.72,10.094-31.039-17.855-34.4-30.415a5.9,5.9,0,0,1,.178-3.861Z" transform="translate(-271.478 -67.927)" fill="#fff" fill-rule="evenodd"/>
      <path id="Caminho_3810" data-name="Caminho 3810" d="M410.968,159.864a16.245,16.245,0,0,1-9.486-17.017c-10.895-.754-24.576-16.324-14.219-29.136-15.61-5.047-19.944,18.449-28.953,30.214-26.455,34.547-68.188,21.42-62.2-19.429,7.957-54.291,93.427-76.868,106.352-36.114,39.855-2.872,25.248,45.557,29.493,65.915l-7.138.066s-3.642-6.182-9.583-5.588S410.968,159.864,410.968,159.864Z" transform="translate(-271.347 -67.507)" fill="#373061" fill-rule="evenodd"/>
      <path id="Caminho_3811" data-name="Caminho 3811" d="M384.817,166.254a1.156,1.156,0,0,1,.6.755.449.449,0,0,0,.537.336.443.443,0,0,0,.333-.534,1.947,1.947,0,0,0-.659-1.065l.027-.02a2.11,2.11,0,0,1,.951.983.445.445,0,0,0,.591.22.45.45,0,0,0,.221-.591,2.894,2.894,0,0,0-1.047-1.211l.007-.007a2.773,2.773,0,0,1,1.189.751.445.445,0,1,0,.651-.608,3.584,3.584,0,0,0-1.208-.856l-1.527.122Z" transform="translate(-271.7 -67.89)" fill="#373061" fill-rule="evenodd"/>
      <path id="Caminho_3812" data-name="Caminho 3812" d="M376.5,163.908a1.556,1.556,0,1,0-1.348,2.806,11.227,11.227,0,0,0,11.409-1.462,1.556,1.556,0,1,0-1.918-2.451A7.988,7.988,0,0,1,376.5,163.908Z" transform="translate(-271.658 -67.882)" fill="#373061" fill-rule="evenodd"/>
      <path id="Caminho_3813" data-name="Caminho 3813" d="M334.392,169.278a1.144,1.144,0,0,0-.512.822.446.446,0,1,1-.886-.094,1.944,1.944,0,0,1,.527-1.136l-.029-.018a2.1,2.1,0,0,0-.824,1.092.446.446,0,0,1-.851-.272,2.881,2.881,0,0,1,.893-1.328l-.007-.006a2.775,2.775,0,0,0-1.093.888.446.446,0,0,1-.719-.527,3.594,3.594,0,0,1,1.1-.994l1.53-.061Z" transform="translate(-271.486 -67.902)" fill="#373061" fill-rule="evenodd"/>
      <path id="Caminho_3814" data-name="Caminho 3814" d="M342.327,165.96A1.557,1.557,0,1,1,344,168.584a11.231,11.231,0,0,1-11.5-.09,1.556,1.556,0,1,1,1.613-2.661A7.992,7.992,0,0,0,342.327,165.96Z" transform="translate(-271.49 -67.894)" fill="#373061" fill-rule="evenodd"/>
      <path id="Caminho_3815" data-name="Caminho 3815" d="M335.55,195.1s-14.793,6.486-17.951,8.72-4.419,6.677-1.741,16.118,7.685,21.8,7.615,25.223c-.3,14.394-27.493,56.643-41.891,78.742-23.156,35.541,19.03,70.094,34,23.973l19.088-58.817-.006-.064c5-14.737,12.68-38.943,13.056-39.993.438-1.228,4.832-5.853,6.07-8.741s.431-14.344.529-15.607,4.346-4.08,4.906-5.56.142-4.369-.077-5.242-4.166-2.826-4.166-2.826-2.443-5.011-3.866-5.531a9.354,9.354,0,0,0-3.438-.328s-2.114-5.146-3.584-5.86a8.14,8.14,0,0,0-3.73-.459S338.768,194.556,335.55,195.1Z" transform="translate(-271.265 -68.011)" fill="#e7baa8" fill-rule="evenodd"/>
      <path id="Caminho_3816" data-name="Caminho 3816" d="M339.959,273.791c3.951-12.107,7.716-23.945,7.977-24.673.438-1.228,4.832-5.853,6.07-8.741a16.156,16.156,0,0,0,.658-4.81l-3.382-9.656-21.469-2.8Z" transform="translate(-271.483 -68.122)" fill="#d68982" fill-rule="evenodd"/>
      <path id="Caminho_3817" data-name="Caminho 3817" d="M340.269,198.22a.713.713,0,1,1,.6,1.291l-12.291,5.755a.713.713,0,1,1-.6-1.291Z" transform="translate(-271.474 -68.023)" fill="#d68982" fill-rule="evenodd"/>
      <path id="Caminho_3818" data-name="Caminho 3818" d="M347.573,204.583a.714.714,0,0,1,.688,1.252l-11.392,6.253a.714.714,0,1,1-.687-1.251Z" transform="translate(-271.506 -68.048)" fill="#d68982" fill-rule="evenodd"/>
      <path id="Caminho_3819" data-name="Caminho 3819" d="M354.894,210.477a.713.713,0,1,1,.722,1.229l-9.9,5.828A.713.713,0,0,1,345,216.3Z" transform="translate(-271.541 -68.071)" fill="#d68982" fill-rule="evenodd"/>
      <path id="Caminho_3820" data-name="Caminho 3820" d="M354.618,223.327a.713.713,0,0,1,1.157.832c-.01.015-3.752,5.158-4.444,7.1a.715.715,0,1,1-1.349-.474C350.746,228.644,354.607,223.342,354.618,223.327Z" transform="translate(-271.562 -68.121)" fill="#d68982" fill-rule="evenodd"/>
      <path id="Caminho_3821" data-name="Caminho 3821" d="M348.111,247.621a.712.712,0,1,1,1.095.911c-.007.009-2.678,3.317-9.044,2.493a.712.712,0,1,1,.179-1.413C345.924,250.333,348.106,247.629,348.111,247.621Z" transform="translate(-271.521 -68.218)" fill="#d68982" fill-rule="evenodd"/>
      <path id="Caminho_3822" data-name="Caminho 3822" d="M335.578,289.472a.712.712,0,1,1-1.347-.463c3.489-10.043,8.815-26.784,11.456-35.09.911-2.863,1.51-4.745,1.593-4.975a17.293,17.293,0,0,1,2.205-3.13,31.767,31.767,0,0,0,3.881-5.651.715.715,0,0,1,1.316.559,32.359,32.359,0,0,1-4.075,5.973,18.634,18.634,0,0,0-1.979,2.728c-.124.35-.7,2.162-1.581,4.924C344.406,262.656,339.079,279.4,335.578,289.472Z" transform="translate(-271.5 -68.187)" fill="#d68982" fill-rule="evenodd"/>
      <path id="Caminho_3823" data-name="Caminho 3823" d="M349.455,193.613s16.517,3.764,20.212,5.443,5.873,6.005,4.979,16.258-3.615,23.974-2.866,27.483c3.156,14.765,39.5,52.926,58.7,72.851,30.872,32.048-5.757,75.954-30.285,31.4l-31.28-56.823-.006-.066c-8.058-14.2-20.75-37.616-21.343-38.624-.7-1.178-6.135-5.076-7.979-7.808s-3.277-14.69-3.627-15.972-5.283-3.345-6.15-4.76-1.012-4.471-.958-5.415,3.734-3.732,3.734-3.732,1.528-5.645,2.889-6.46a9.805,9.805,0,0,1,3.476-1.015s1.163-5.716,2.536-6.742a8.531,8.531,0,0,1,3.753-1.208S346.032,193.682,349.455,193.613Z" transform="translate(-271.479 -68.005)" fill="#e7baa8" fill-rule="evenodd"/>
      <path id="Caminho_3824" data-name="Caminho 3824" d="M345.126,199.129a.715.715,0,1,1,.351-1.385l13.8,3.507a.715.715,0,1,1-.352,1.386Z" transform="translate(-271.541 -68.021)" fill="#d68982" fill-rule="evenodd"/>
      <path id="Caminho_3825" data-name="Caminho 3825" d="M338.771,207.1a.713.713,0,1,1,.437-1.358l12.968,4.2a.713.713,0,1,1-.435,1.358Z" transform="translate(-271.516 -68.053)" fill="#d68982" fill-rule="evenodd"/>
      <path id="Caminho_3826" data-name="Caminho 3826" d="M332.357,214.6a.715.715,0,1,1,.481-1.347l11.347,4.052a.714.714,0,1,1-.48,1.346Z" transform="translate(-271.491 -68.083)" fill="#d68982" fill-rule="evenodd"/>
      <path id="Caminho_3827" data-name="Caminho 3827" d="M334.692,227.462a.715.715,0,0,1,.975-1.045c.014.013,5.034,4.713,6.24,6.762a.713.713,0,1,1-1.229.721C339.581,232.037,334.708,227.475,334.692,227.462Z" transform="translate(-271.501 -68.134)" fill="#d68982" fill-rule="evenodd"/>
      <path id="Caminho_3828" data-name="Caminho 3828" d="M346.244,251.265a.712.712,0,1,1,.917-1.09c.008.007,2.8,2.367,8.422.517a.715.715,0,1,1,.447,1.358C349.651,254.15,346.254,251.274,346.244,251.265Z" transform="translate(-271.546 -68.228)" fill="#d68982" fill-rule="evenodd"/>
      <path id="Caminho_3829" data-name="Caminho 3829" d="M369.572,290.063a.712.712,0,1,1-1.235.71c-5.642-9.767-14.4-25.9-18.749-33.913-1.494-2.754-2.475-4.563-2.6-4.771a19.929,19.929,0,0,0-2.587-2.427,33.932,33.932,0,0,1-5.369-5.339.715.715,0,0,1,1.185-.8,33.008,33.008,0,0,0,5.119,5.061,17.934,17.934,0,0,1,2.881,2.786c.2.346,1.165,2.115,2.628,4.809C355.224,264.245,364.046,280.5,369.572,290.063Z" transform="translate(-271.519 -68.201)" fill="#d68982" fill-rule="evenodd"/>
      <path id="Caminho_3830" data-name="Caminho 3830" d="M317.283,203.374a.593.593,0,1,1,.683.968,6.911,6.911,0,0,0-2.813,4.955c-.364,2.493-.014,5.883,1.3,10.518,1.055,3.719,2.481,7.916,3.811,11.831,2.047,6.022,3.873,11.392,3.827,13.563-.155,7.313-7.062,21.567-15.736,36.763-8.646,15.137-19.047,31.235-26.251,42.29a.594.594,0,1,1-1-.648c7.192-11.042,17.584-27.12,26.211-42.228,8.593-15.05,15.434-29.119,15.583-36.2.041-1.958-1.753-7.238-3.766-13.16-1.335-3.924-2.762-8.131-3.83-11.891-1.363-4.808-1.719-8.361-1.333-11.01A8.035,8.035,0,0,1,317.283,203.374Z" transform="translate(-271.29 -68.043)" fill="#d68982" fill-rule="evenodd"/>
      <path id="Caminho_3831" data-name="Caminho 3831" d="M348.075,251.231a.594.594,0,0,1-1.026.6,19.636,19.636,0,0,0-2.609-2.457,33.941,33.941,0,0,1-5.351-5.318c-1.467-2.17-2.641-9.6-3.281-13.659-.2-1.274-.35-2.208-.425-2.491-.121-.442-1.463-1.267-2.817-2.1A11.105,11.105,0,0,1,329.3,223.3a7.246,7.246,0,0,1-.8-2.431,16.662,16.662,0,0,1-.24-3.325c.059-1.084,3.081-3.487,3.807-4.049.295-1.035,1.71-5.78,3.1-6.619a9.642,9.642,0,0,1,3.292-1.043c.307-1.372,1.364-5.707,2.672-6.683l.044-.03a8.556,8.556,0,0,1,3.573-1.243c.312-1.262,1.471-4.8,4.7-4.86a.582.582,0,0,1,.145.015c.048.009,16.575,3.777,20.322,5.479a8.4,8.4,0,0,1,4.526,5.261l.01.032c.915,2.65,1.243,6.369.792,11.56-.353,4.051-1,8.681-1.6,13-.9,6.5-1.709,12.288-1.279,14.306,1.554,7.269,11.38,20.418,23.2,34.228,11.875,13.867,25.753,28.379,35.341,38.335a.595.595,0,0,1-.858.824c-9.6-9.968-23.5-24.5-35.386-38.385C382.726,263.731,372.8,250.413,371.2,242.92c-.473-2.219.346-8.11,1.265-14.717.594-4.281,1.234-8.869,1.588-12.941.436-5.025.131-8.582-.728-11.074l-.01-.026a7.268,7.268,0,0,0-3.895-4.566c-3.507-1.595-18.848-5.122-20.022-5.391-2.79.122-3.529,4.073-3.569,4.3a.6.6,0,0,1-.547.505,7.954,7.954,0,0,0-3.4,1.065l-.033.027c-1.137.849-2.205,5.883-2.3,6.349a.6.6,0,0,1-.546.51,9.055,9.055,0,0,0-3.212.931c-1.161.693-2.619,6.087-2.624,6.1a.6.6,0,0,1-.21.319c-.011.007-3.468,2.64-3.505,3.295a15.464,15.464,0,0,0,.228,3.054,6.169,6.169,0,0,0,.643,2.019,11.322,11.322,0,0,0,2.877,2.111c1.555.956,3.1,1.9,3.341,2.8.092.346.245,1.308.451,2.62.625,3.964,1.771,11.214,3.095,13.174a33.289,33.289,0,0,0,5.14,5.085A18.071,18.071,0,0,1,348.075,251.231Z" transform="translate(-271.476 -68.003)" fill="#d68982" fill-rule="evenodd"/>
      <path id="Caminho_3832" data-name="Caminho 3832" d="M425.421,133.693l-.233,8.167,7.152,12.7s.555,7.6,8.025,20.43,10.975,18.431,9.576,22.4c-14.814,41.935-63.658,37.533-54.995,26.129a64.058,64.058,0,0,0,17.472-51.051h0a12.327,12.327,0,0,0,7.72-23.017Z" transform="translate(-271.736 -67.768)" fill="#373061" fill-rule="evenodd"/>
      <path id="Caminho_3833" data-name="Caminho 3833" d="M417.429,276.764,411.7,294.927c3.78,4.093,7.5,8.041,10.973,11.7Z" transform="translate(-271.806 -68.334)" fill="#d68982" fill-rule="evenodd"/>
      <path id="Caminho_3834" data-name="Caminho 3834" d="M353.521,266.7a40.368,40.368,0,0,0,2.965,21.4c4.849,10.767,14.818,16.556,22.63,30.284s16.167,37.685,27.753,49.8,33.14,3.5,41.764-18.035,4.583-28.337,12.993-48.965,15.566-35.022,13.139-50.365-10.588-20.78-16.132-22.255c-31.337-8.343-36.528,32.226-46.389,63.708,0,0-11.035-10.632-14-20.591s-9.43-17.094-19.937-18.036S371.972,261.313,353.521,266.7Z" transform="translate(-271.575 -68.139)" fill="#fff" fill-rule="evenodd"/>
      <path id="Caminho_3835" data-name="Caminho 3835" d="M353.735,269.565a4.312,4.312,0,0,1-1.845-1.312s-3.5-8.074-3.368-8.746a8.791,8.791,0,0,1,1.355-2.173l1.254,2.312c13.717,2.574,23.518-11.071,23.518-11.071l-1.031-2.178a3.931,3.931,0,0,1,2.184.795,40.464,40.464,0,0,1,3.706,5.654,2.717,2.717,0,0,1-.186,1.883C376.821,261.67,361.362,272.762,353.735,269.565Z" transform="translate(-271.556 -68.214)" fill="#fff" fill-rule="evenodd"/>
      <path id="Caminho_3836" data-name="Caminho 3836" d="M322.328,258.8l-4.721-1.034s-2.622,1.3-6.594,6.821-5.052,17.026-13.945,29.948-20.11,29.2-22.633,38.358-2.73,25.371,4.58,32.975c5.865,6.1,22.017,6.694,24.951,4.886,21.421-13.189,17.656-35.714,23.315-54.559s22.329-27.989,16.805-49.39C340.988,259.135,338.562,266.135,322.328,258.8Z" transform="translate(-271.257 -68.259)" fill="#fff" fill-rule="evenodd"/>
      <path id="Caminho_3837" data-name="Caminho 3837" d="M343.875,268.989a4.085,4.085,0,0,0,1.574-1.458s2.3-8.022,2.089-8.64A8.343,8.343,0,0,0,346,257.016l-.895,2.328c-12.58,4.1-23.474-7.52-23.474-7.52l.7-2.173a3.725,3.725,0,0,0-1.957,1.014,38.434,38.434,0,0,0-2.788,5.771,2.577,2.577,0,0,0,.406,1.749C321.2,264.4,337.1,272.932,343.875,268.989Z" transform="translate(-271.434 -68.227)" fill="#fff" fill-rule="evenodd"/>
      <path id="Caminho_3838" data-name="Caminho 3838" stroke="#cbd8f0" d="M373.618,246.4a3.931,3.931,0,0,1,2.184.795,40.464,40.464,0,0,1,3.706,5.654,2.717,2.717,0,0,1-.186,1.883c-2.5,6.942-17.961,18.034-25.587,14.837a4.312,4.312,0,0,1-1.845-1.312s-3.5-8.074-3.368-8.746a8.791,8.791,0,0,1,1.355-2.173" fill="none" transform="translate(-271.556 -68.214)" stroke-linecap="round" stroke-linejoin="round" stroke-width="0.709" fill-rule="evenodd"/>
      <path id="Caminho_3839" data-name="Caminho 3839" stroke="#cbd8f0" d="M322.329,249.65a3.725,3.725,0,0,0-1.957,1.014,38.434,38.434,0,0,0-2.788,5.771,2.577,2.577,0,0,0,.406,1.749c3.209,6.219,19.106,14.748,25.884,10.805a4.085,4.085,0,0,0,1.574-1.458s2.3-8.022,2.089-8.64A8.343,8.343,0,0,0,346,257.016" fill="none" transform="translate(-271.434 -68.227)" stroke-linecap="round" stroke-linejoin="round" stroke-width="0.709" fill-rule="evenodd"/>
      <path id="Caminho_3840" data-name="Caminho 3840" stroke="#cbd8f0" d="M412.479,292.526s15.717,11.636,22.787,28.837" fill="none" transform="translate(-271.809 -68.396)" stroke-linecap="round" stroke-linejoin="round" stroke-width="0.709" fill-rule="evenodd"/>
      <line id="Linha_46" data-name="Linha 46" y1="56.028" x2="7.591" transform="translate(183.578 201.501)" fill="none" stroke="#cbd8f0" stroke-linecap="round" stroke-linejoin="round" stroke-width="0.709"/>
      <path id="Caminho_3841" data-name="Caminho 3841" stroke="#cbd8f0" d="M317.613,257.767s-2.622,1.3-6.594,6.821-5.052,17.026-13.945,29.948-20.11,29.2-22.633,38.358" fill="none" transform="translate(-271.264 -68.259)" stroke-linecap="round" stroke-linejoin="round" stroke-width="0.709" fill-rule="evenodd"/>
      <path id="Caminho_3842" data-name="Caminho 3842" d="M382.535,69.515a38.836,38.836,0,0,0-3.851,2.795c-15.374,12.632-35.549,42.34-67.5,21.134a60.327,60.327,0,0,0-13.741,24.713c9.529,7.8,21.034,15.24,31.633,16.8,23.919,3.516,34.893-21.03,42.186-35.172,4.339-8.413,11.04-20.452,20.932-25.594A33.416,33.416,0,0,0,382.535,69.515Z" transform="translate(-271.355 -67.515)" fill="#443e6f" fill-rule="evenodd"/>
    </g>
  </g>
</svg>
