<svg xmlns="http://www.w3.org/2000/svg" width="237.036" height="245.926" viewBox="0 0 237.036 245.926">
  <g id="Grupo_459" data-name="Grupo 459" transform="translate(-228.156 -54.466)">
    <path id="Caminho_3575" data-name="Caminho 3575" d="M353.063,88.6a103.432,103.432,0,1,1-73.137,30.294A103.113,103.113,0,0,1,353.063,88.6Zm71.577,31.854a101.225,101.225,0,1,0,29.648,71.577A100.914,100.914,0,0,0,424.641,120.451Z" transform="translate(-6.389 -10.154)" fill="#f4dcb1" fill-rule="evenodd"/>
    <g id="Grupo_458" data-name="Grupo 458" transform="translate(228.156 54.466)">
      <circle id="Elipse_14" data-name="Elipse 14" cx="96.298" cy="96.298" r="96.298" transform="translate(0 60.326) rotate(-15.49)" fill="#f4dcb1"/>
      <g id="Grupo_457" data-name="Grupo 457" transform="translate(59.501)">
        <path id="Caminho_3576" data-name="Caminho 3576" d="M439.784,140.459a.514.514,0,1,1,.908-.484c.029.054,9.98,18.645,10.978,23.193a15.789,15.789,0,0,1,.072,7.156,9.008,9.008,0,0,1-3.211,5.054.515.515,0,1,1-.629-.815,8,8,0,0,0,2.841-4.489,14.792,14.792,0,0,0-.079-6.688C449.694,158.973,439.812,140.512,439.784,140.459Z" transform="translate(-350.599 -79.824)" fill="#373061" fill-rule="evenodd"/>
        <path id="Caminho_3577" data-name="Caminho 3577" d="M342.03,99.724a.515.515,0,1,1,.867.557c-.025.039-9.13,13.8,7.736,25.97a.514.514,0,0,1-.6.835C332.365,114.338,342,99.766,342.03,99.724Z" transform="translate(-320.747 -67.86)" fill="#373061" fill-rule="evenodd"/>
        <path id="Caminho_3578" data-name="Caminho 3578" d="M351.252,112.026s-9.335-7.7-11.4-14.289-1.033-12.393,4.39-18.977,22.075-21.43,26.722-23.625,14.076,1.243,20.269,6.882c0,0,7.808-1.718,10.778-.428s9.662,10.489,15.376,28.913-8.122,26.67-17.9,32.7l-34.953-2.086Z" transform="translate(-320.592 -54.466)" fill="#373061" fill-rule="evenodd"/>
        <path id="Caminho_3579" data-name="Caminho 3579" d="M351,118.813l-4.674,1.746s.648,18.046-4.1,30.471-.972,22.926,6.693,20.412c0,0,.448,7.569,6.8,9.318s14.249,3.106,14.249,3.106l21.373,1.184s20.3,5.62,21.807-18.193c0,0,6.908-.3,7.017-8.579s-9.391-21.742-9.391-38.9S351,118.813,351,118.813Z" transform="translate(-320.969 -71.465)" fill="#373061" fill-rule="evenodd"/>
        <path id="Caminho_3580" data-name="Caminho 3580" d="M427.767,146.665a14.573,14.573,0,0,0-5.725-4.077c-3.91-1.645-3.246,4.386-2.018,4.939S426.734,149.708,427.767,146.665Z" transform="translate(-344.455 -80.598)" fill="#f4dcb1" fill-rule="evenodd"/>
        <path id="Caminho_3581" data-name="Caminho 3581" d="M333.287,185.581c-4.143,1.184-6.979,6.688-8.618,14.7-1.663,8.133-12.8,48.787-11.744,54.505-.4-3.249,24.5-24.264,27.995-27.669,0,0-1.858-25.656-2.587-31.3S335.419,185.8,333.287,185.581Z" transform="translate(-312.855 -93.473)" fill="#e7baa8" fill-rule="evenodd"/>
        <path id="Caminho_3582" data-name="Caminho 3582" d="M328.564,244.348c7.014-6.538,15.14-13.509,17.028-15.347,0,0-1.858-25.656-2.587-31.3-.115-.892-.267-1.753-.449-2.569L339.2,191.9l-2.233,26.835,1.3,3.348-2.456,3.734-7.252,18.533Z" transform="translate(-317.527 -95.354)" fill="#d68982" fill-rule="evenodd"/>
        <path id="Caminho_3583" data-name="Caminho 3583" d="M336.679,185.069s-3.491.6-5.2,3.13-8.2,24.384-8.2,24.384a2.7,2.7,0,0,0,.137,1.912c.478.82,12.773,8.06,12.773,8.06l6.967-17.281S342.751,186.012,336.679,185.069Z" transform="translate(-315.922 -93.321)" fill="#cb5136" fill-rule="evenodd"/>
        <path id="Caminho_3584" data-name="Caminho 3584" d="M323.762,222.568c-.287.729-.459,1.171-.459,1.171a2.721,2.721,0,0,0-.07.311l13.872,8.41.9-1.26Z" transform="translate(-315.943 -104.477)" fill="#e6b25c" fill-rule="evenodd"/>
        <path id="Caminho_3585" data-name="Caminho 3585" d="M448.56,185.581c4.143,1.184,6.979,6.688,8.619,14.7,1.662,8.133,12.8,48.787,11.742,54.505.4-3.249-24.5-24.264-27.994-27.669,0,0,1.857-25.656,2.587-31.3S446.428,185.8,448.56,185.581Z" transform="translate(-350.957 -93.473)" fill="#e7baa8" fill-rule="evenodd"/>
        <path id="Caminho_3586" data-name="Caminho 3586" d="M457.955,244.348c-7.014-6.538-15.141-13.509-17.028-15.347,0,0,1.857-25.656,2.587-31.3.115-.892.268-1.753.448-2.569l3.354-3.227,2.232,26.835-1.295,3.348,2.457,3.734,7.252,18.533Z" transform="translate(-350.957 -95.354)" fill="#d68982" fill-rule="evenodd"/>
        <path id="Caminho_3587" data-name="Caminho 3587" d="M448.576,185.069s3.491.6,5.2,3.13,8.2,24.384,8.2,24.384a2.7,2.7,0,0,1-.137,1.912c-.478.82-12.774,8.06-12.774,8.06L442.1,205.274S442.505,186.012,448.576,185.069Z" transform="translate(-351.304 -93.321)" fill="#cb5136" fill-rule="evenodd"/>
        <path id="Caminho_3588" data-name="Caminho 3588" d="M463.707,222.568c.287.729.459,1.171.459,1.171a2.846,2.846,0,0,1,.07.311l-13.871,8.41-.9-1.26Z" transform="translate(-353.498 -104.477)" fill="#e6b25c" fill-rule="evenodd"/>
        <path id="Caminho_3589" data-name="Caminho 3589" d="M391.92,130.512h0a11.187,11.187,0,0,1,11.154,11.155v21.354a11.187,11.187,0,0,1-11.154,11.155h0a11.188,11.188,0,0,1-11.155-11.155V141.667A11.188,11.188,0,0,1,391.92,130.512Z" transform="translate(-333.059 -77.09)" fill="#e6b5a3" fill-rule="evenodd"/>
        <path id="Caminho_3590" data-name="Caminho 3590" d="M392.551,177.8s-4.712,6.758-12.943,6.758-12.943-6.758-12.943-6.758c-.882-.991-2.618-.379-6.224.915s-11.059,2.416-19.09,4.049h0a.826.826,0,0,0-.33.36,1.349,1.349,0,0,1,1,.773c.3.684.662,19.284.753,22.562s-6.829,10.655-2.458,24.134c.808,2.49,1.51,4.622,2.12,6.457,0,0,4.266,16.488,4.994,25.23s-1.468,16.826-3.454,26.6c-1.026,5.047-2.917,11.772-4.508,17.1a95.929,95.929,0,0,0,40.139,8.745h0a95.931,95.931,0,0,0,40.137-8.743c-1.59-5.326-3.482-12.052-4.508-17.1-1.987-9.773-4.183-17.855-3.455-26.6s4.994-25.23,4.994-25.23c.612-1.835,1.312-3.966,2.121-6.457,4.372-13.479-2.549-20.855-2.457-24.134s.455-21.879.75-22.562a1.353,1.353,0,0,1,1-.773.809.809,0,0,0-.332-.36h0c-8.03-1.633-15.482-2.757-19.089-4.049S393.434,176.8,392.551,177.8Z" transform="translate(-320.594 -91.011)" fill="#cb5136" fill-rule="evenodd"/>
        <path id="Caminho_3591" data-name="Caminho 3591" d="M360.266,180.292c-1.132.289-2.438.576-3.876.87l-.082,3.515,2,4.147L369.8,199.048l-23.688,45.144a156.892,156.892,0,0,1,3.47,18.972q.075.9.108,1.79l18.221-31.528,17.026-13.066-9.368,35.732,26.525-7.755a4.356,4.356,0,0,1,4.262,1.857c.976,1.34,4.629,7.125,7.676,11.985.94-8.936,4.9-24.245,4.9-24.245.3-.906.625-1.885.973-2.943l-37.933-43.639-14.491-10.574Z" transform="translate(-322.751 -91.9)" fill="#c53424" fill-rule="evenodd"/>
        <g id="Grupo_443" data-name="Grupo 443" transform="translate(39.847 86.293)">
          <path id="Caminho_3592" data-name="Caminho 3592" d="M369.577,178.71s.981-.081,1.254,3.525c1.458,19.332,15.457,19.069,17.913,7.35v-5.032c-8.23,0-12.943-6.758-12.943-6.758C374.919,176.8,373.183,177.416,369.577,178.71Z" transform="translate(-369.577 -177.304)" fill="#c53424" fill-rule="evenodd"/>
          <path id="Caminho_3593" data-name="Caminho 3593" d="M416.029,178.71s-.981-.081-1.254,3.525c-1.459,19.332-15.456,19.069-17.914,7.35v-5.032c8.231,0,12.943-6.758,12.943-6.758C410.687,176.8,412.423,177.416,416.029,178.71Z" transform="translate(-377.694 -177.304)" fill="#c53424" fill-rule="evenodd"/>
        </g>
        <path id="Caminho_3594" data-name="Caminho 3594" d="M380.061,173.3l16.8-6.631,5.46-2.155v-2.382a20.27,20.27,0,0,1-11,3.347h-.311a19.1,19.1,0,0,1-11-3.924V168c-.053.721-.351,3.7-1.775,4.976a1.423,1.423,0,0,1,.139.137s.174.249.511.651Z" transform="translate(-332.307 -86.325)" fill="#d2887a" fill-rule="evenodd"/>
        <g id="Grupo_444" data-name="Grupo 444" transform="translate(30.086 49.492)">
          <path id="Caminho_3595" data-name="Caminho 3595" d="M426.123,125.373c.168.023.33.051.493.086h0a6.712,6.712,0,1,1-5.61,1.31c-.185,1.98.112,4.433,2.639,4.7L423.6,127.6A2.306,2.306,0,0,1,426.123,125.373Z" transform="translate(-374.365 -125.052)" fill="#d68982" fill-rule="evenodd"/>
          <path id="Caminho_3596" data-name="Caminho 3596" d="M361.553,124.918c-.166.021-.331.047-.492.08h0a6.713,6.713,0,1,0,5.591,1.389c.157,1.982-.174,4.431-2.7,4.659l.1-3.868A2.306,2.306,0,0,0,361.553,124.918Z" transform="translate(-355.682 -124.917)" fill="#d68982" fill-rule="evenodd"/>
        </g>
        <path id="Caminho_3597" data-name="Caminho 3597" d="M386.907,144.9c-12.526,0-22.975-15.455-22.975-27.658v-16.21A23.04,23.04,0,0,1,386.9,78.057h0a23.04,23.04,0,0,1,22.971,22.972V116.9C409.878,130.269,400.763,144.9,386.907,144.9Z" transform="translate(-328.051 -61.485)" fill="#e7baa8" fill-rule="evenodd"/>
        <path id="Caminho_3598" data-name="Caminho 3598" d="M362.654,110.683V106.71a22.854,22.854,0,0,1,5.34-14.682l34.58.858.686,3.687L401.031,98.2s-13.237,28.385-35.773,14.193C364.331,111.811,363.467,111.241,362.654,110.683Z" transform="translate(-327.67 -65.641)" fill="#d68982" fill-rule="evenodd"/>
        <path id="Caminho_3599" data-name="Caminho 3599" d="M413.541,140.571a4.13,4.13,0,1,0,4.2,4.053A4.13,4.13,0,0,0,413.541,140.571Z" transform="translate(-341.604 -80.082)" fill="#d3766d" fill-rule="evenodd"/>
        <path id="Caminho_3600" data-name="Caminho 3600" d="M376.018,141.293a4.129,4.129,0,1,0,4.2,4.052A4.131,4.131,0,0,0,376.018,141.293Z" transform="translate(-330.44 -80.297)" fill="#d3766d" fill-rule="evenodd"/>
        <path id="Caminho_3601" data-name="Caminho 3601" stroke="#c53424" d="M341.02,185.581a1.349,1.349,0,0,1,1,.773c.3.684.662,19.284.753,22.562s-6.829,10.655-2.458,24.134c.808,2.49,1.51,4.622,2.12,6.457,0,0,4.266,16.488,4.994,25.23s-1.468,16.826-3.454,26.6c-1.026,5.047-2.917,11.772-4.508,17.1m77.259-98.01-3.633-8.333m-70.5,8.006,1.928-5.109m11.2,94.588s17.05,12.9,38.906,13.552m23.922-8.786L396.593,266.79m-51.675,20.042,5.994-15.016m68.836,36.62c-1.59-5.326-3.482-12.052-4.508-17.1-1.987-9.773-4.183-17.855-3.455-26.6s4.994-25.23,4.994-25.23c.612-1.835,1.312-3.966,2.121-6.457,4.372-13.479-2.549-20.855-2.457-24.134s.455-21.879.75-22.562a1.353,1.353,0,0,1,1-.773" fill="none" transform="translate(-320.594 -93.473)" stroke-linecap="round" stroke-linejoin="round" stroke-width="0.85" fill-rule="evenodd"/>
        <path id="Caminho_3602" data-name="Caminho 3602" d="M383.544,118.019a.962.962,0,1,1-.795,1.753,6.3,6.3,0,0,0-5.68.365.966.966,0,1,1-1.028-1.635A8.326,8.326,0,0,1,383.544,118.019Z" transform="translate(-331.519 -73.17)" fill="#373061" fill-rule="evenodd"/>
        <path id="Caminho_3603" data-name="Caminho 3603" d="M362.652,168.209s-11.692,2.585-13.587,9.489-5.791,21.406,9.452,36.923,11.418,32.274,11.418,32.274-.728,6.194,4.554,5.829,20.035-8.925,20.035-8.925,4.372-3.1,2.551-9.654c-1.52-5.47-4.364-20.03-17.156-30.358a29.359,29.359,0,0,0-8.162-4.249c-19.126-7.468-12.031-23.89-12.031-23.89Z" transform="translate(-323.068 -88.305)" fill="#fff" fill-rule="evenodd"/>
        <path id="Caminho_3604" data-name="Caminho 3604" d="M363.551,168.209s-10.878,2.405-13.35,8.773l9.327,8.247a19.4,19.4,0,0,1,1.1-9.581l2.925-7.439Zm-1.226,49.662a40.268,40.268,0,0,1,6.806,11.96l11.687-26.044a43.271,43.271,0,0,0-8.1-4.226Z" transform="translate(-323.966 -88.305)" fill="#f4dcb1" fill-rule="evenodd"/>
        <path id="Caminho_3605" data-name="Caminho 3605" d="M415.8,119.118a.962.962,0,0,1-1.228,1.482,6.307,6.307,0,0,0-5.577-1.142.966.966,0,0,1-.562-1.849A8.329,8.329,0,0,1,415.8,119.118Z" transform="translate(-341.086 -73.154)" fill="#373061" fill-rule="evenodd"/>
        <path id="Caminho_3606" data-name="Caminho 3606" d="M396.7,137.511a19.871,19.871,0,0,1,.913,3.686c-.115.492-2.665.84-3.295.159-.42-.454.23-2.337.775-3.6C395.841,136.035,396.211,135.914,396.7,137.511Z" transform="translate(-337.052 -78.837)" fill="#f0d3c8" fill-rule="evenodd"/>
        <g id="Grupo_445" data-name="Grupo 445" transform="translate(42.874 54.1)">
          <path id="Caminho_3607" data-name="Caminho 3607" d="M413.329,132.3a2.014,2.014,0,0,1-4.028-.015.806.806,0,1,0-1.613-.006,3.628,3.628,0,0,0,6.989,1.378.6.6,0,0,1,.491.1.231.231,0,1,0,.28-.367,1,1,0,0,0-.616-.2l0-.018a1.088,1.088,0,0,1,.7.076.231.231,0,1,0,.2-.417,1.5,1.5,0,0,0-.818-.133v0a1.429,1.429,0,0,1,.722-.1.231.231,0,1,0,.056-.458,1.856,1.856,0,0,0-.764.062.807.807,0,0,0-1.607.105Z" transform="translate(-383.943 -131.477)" fill="#373061" fill-rule="evenodd"/>
          <path id="Caminho_3608" data-name="Caminho 3608" d="M376.459,132.3a2.014,2.014,0,1,0,4.028-.015.807.807,0,1,1,1.614-.006,3.628,3.628,0,0,1-6.989,1.378.594.594,0,0,0-.491.1.231.231,0,1,1-.28-.367,1,1,0,0,1,.616-.2l0-.018a1.084,1.084,0,0,0-.7.076.231.231,0,0,1-.2-.417,1.5,1.5,0,0,1,.818-.133v0a1.433,1.433,0,0,0-.723-.1.231.231,0,0,1-.055-.458,1.864,1.864,0,0,1,.765.062.806.806,0,0,1,1.605.105Z" transform="translate(-373.887 -131.477)" fill="#373061" fill-rule="evenodd"/>
        </g>
        <path id="Caminho_3609" data-name="Caminho 3609" d="M413.573,104.766l-2.116,5.286s-3.516-.358-3.516,3.993c0,0-3.115-2.247-1.914-7.564,0,0-8.26-10-6.516-17.234,0,0,.556-1.758-.643-1.973s-11.19,30.57-31.769,14.448c0,0,.617,9.033-5.1,10.547,0,0-1.158-3.776-3.557-2.488,0,0-3.258-18.862,1.887-26.751s11.319-15.778,22.3-14.749S414.518,78.915,413.573,104.766Z" transform="translate(-326.113 -58.549)" fill="#373061" fill-rule="evenodd"/>
        <path id="Caminho_3610" data-name="Caminho 3610" d="M363.663,144.281s4.551,4.769,10.347,2.327,15.511-7.134,27.2-1.372c0,0,6.461,3.745,8.6,1.482,0,0,3.661,4.362,2.675,9.3s-2.634,14.98-5.1,17.532-28.315,8.231-41.567,1.235a8.213,8.213,0,0,1-3.868-4.939c-.741-3.292-2.964-13.828-3.211-15.31s1.893-4.116,3.293-4.527C362.029,150.009,361.617,145.4,363.663,144.281Z" transform="translate(-326.499 -80.651)" fill="#fff" fill-rule="evenodd"/>
        <path id="Caminho_3611" data-name="Caminho 3611" d="M359.339,156.012a6.126,6.126,0,0,1,2.875-2.815s3.23,3.6,9.732,3.108A18.838,18.838,0,0,1,359.339,156.012Z" transform="translate(-326.684 -83.839)" fill="#f4dcb1" fill-rule="evenodd"/>
        <path id="Caminho_3612" data-name="Caminho 3612" d="M421.166,173.865a9.18,9.18,0,0,1-1.649,2.989c-1.386,1.434-10.147,3.853-19.91,4.459-.614-4.5,1.721-19.427,1.721-19.427l2.718-8.3,9.85,11.467,2.02-.962Z" transform="translate(-338.633 -83.956)" fill="#f4dcb1" fill-rule="evenodd"/>
        <g id="Grupo_447" data-name="Grupo 447" transform="translate(59.017 67.463)">
          <path id="Caminho_3613" data-name="Caminho 3613" d="M419.526,178.106s1.334-8.828,1.366-9.778-3.929-1.145-4.582,4.682,2.946,4.91,2.946,4.91Z" transform="translate(-402.627 -155.652)" fill="#d68982" fill-rule="evenodd"/>
          <path id="Caminho_3614" data-name="Caminho 3614" d="M396.866,152.369v39.286c0,4.19,2.358,6.875,4.844,9.3s12.768,17.482,12.768,17.482l10.562-9.019s-13.408-16.472-14.063-17.782-.72-3.8.065-8.118,3.3-11.766,2.519-13.664S406.227,158,403.018,152.24a1.491,1.491,0,0,0-1.162-.246c-.574.18-1.031,1.555-1.031,1.555l-1.571-2.455a1.439,1.439,0,0,0-2.388.164Z" transform="translate(-396.866 -150.5)" fill="#e7baa8" fill-rule="evenodd"/>
          <g id="Grupo_446" data-name="Grupo 446">
            <line id="Linha_18" data-name="Linha 18" x2="9.018" y2="16.191" transform="translate(3.959 3.05)" fill="none" stroke="#d68982" stroke-linecap="round" stroke-linejoin="round" stroke-width="0.85"/>
            <path id="Caminho_3615" data-name="Caminho 3615" stroke="#d68982" d="M396.866,156.973a.858.858,0,0,1,1.191-.1c.622.524,9.2,19.971,9.2,19.971" fill="none" transform="translate(-396.866 -152.334)" stroke-linecap="round" stroke-linejoin="round" stroke-width="0.85" fill-rule="evenodd"/>
            <path id="Caminho_3616" data-name="Caminho 3616" stroke="#d68982" d="M396.866,170.984s.242-.556,1.223-.262,1.212,2.652,2,5.992,2.292,9.69,2.292,9.69" fill="none" transform="translate(-396.866 -156.49)" stroke-linecap="round" stroke-linejoin="round" stroke-width="0.85" fill-rule="evenodd"/>
            <line id="Linha_19" data-name="Linha 19" y2="35.507" transform="translate(0 0.758)" fill="none" stroke="#d68982" stroke-linecap="round" stroke-linejoin="round" stroke-width="0.85"/>
            <path id="Caminho_3617" data-name="Caminho 3617" stroke="#d68982" d="M413.562,169.853c-.786-1.9-7.334-11.851-10.543-17.613a1.491,1.491,0,0,0-1.162-.246c-.574.18-1.031,1.555-1.031,1.555l-1.571-2.455a1.439,1.439,0,0,0-2.388.164" fill="none" transform="translate(-396.866 -150.5)" stroke-linecap="round" stroke-linejoin="round" stroke-width="0.85" fill-rule="evenodd"/>
          </g>
          <path id="Caminho_3618" data-name="Caminho 3618" d="M435.348,267.732c-9.108-10.747-30.951-48.281-30.951-48.281l9.276-8.366.779.3,27.05,29.359,14.3,15.1C463.277,263.749,451.065,286.277,435.348,267.732Z" transform="translate(-399.106 -168.524)" fill="#e7baa8" fill-rule="evenodd"/>
        </g>
        <line id="Linha_20" data-name="Linha 20" x2="11.904" y2="12.645" transform="translate(99.009 137.075)" fill="none" stroke="#d68982" stroke-linecap="round" stroke-linejoin="round" stroke-width="0.85"/>
        <g id="Grupo_449" data-name="Grupo 449" transform="translate(0.069 67.463)">
          <path id="Caminho_3619" data-name="Caminho 3619" d="M372.231,178.106s-1.333-8.828-1.366-9.778,3.928-1.145,4.583,4.682-2.946,4.91-2.946,4.91Z" transform="translate(-330.182 -155.652)" fill="#d68982" fill-rule="evenodd"/>
          <path id="Caminho_3620" data-name="Caminho 3620" d="M384.934,152.369v39.286c0,4.19-2.357,6.875-4.845,9.3s-12.768,17.482-12.768,17.482l-10.562-9.019s13.409-16.472,14.064-17.782.721-3.8-.065-8.118-3.3-11.766-2.518-13.664S375.573,158,378.781,152.24a1.494,1.494,0,0,1,1.163-.246c.571.18,1.03,1.555,1.03,1.555l1.572-2.455a1.438,1.438,0,0,1,2.388.164Z" transform="translate(-325.985 -150.5)" fill="#e7baa8" fill-rule="evenodd"/>
          <g id="Grupo_448" data-name="Grupo 448" transform="translate(42.254)">
            <line id="Linha_21" data-name="Linha 21" x1="9.018" y2="16.191" transform="translate(3.717 3.05)" fill="none" stroke="#d68982" stroke-linecap="round" stroke-linejoin="round" stroke-width="0.85"/>
            <path id="Caminho_3621" data-name="Caminho 3621" stroke="#d68982" d="M392.465,156.973a.858.858,0,0,0-1.191-.1c-.624.524-9.2,19.971-9.2,19.971" fill="none" transform="translate(-375.77 -152.334)" stroke-linecap="round" stroke-linejoin="round" stroke-width="0.85" fill-rule="evenodd"/>
            <path id="Caminho_3622" data-name="Caminho 3622" stroke="#d68982" d="M394.531,170.984s-.242-.556-1.224-.262-1.211,2.652-2,5.992-2.29,9.69-2.29,9.69" fill="none" transform="translate(-377.837 -156.49)" stroke-linecap="round" stroke-linejoin="round" stroke-width="0.85" fill-rule="evenodd"/>
            <line id="Linha_22" data-name="Linha 22" y2="35.507" transform="translate(16.695 0.758)" fill="none" stroke="#d68982" stroke-linecap="round" stroke-linejoin="round" stroke-width="0.85"/>
            <path id="Caminho_3623" data-name="Caminho 3623" stroke="#d68982" d="M373.1,169.853c.786-1.9,7.333-11.851,10.542-17.613a1.494,1.494,0,0,1,1.163-.246c.571.18,1.03,1.555,1.03,1.555l1.572-2.455a1.438,1.438,0,0,1,2.388.164" fill="none" transform="translate(-373.101 -150.5)" stroke-linecap="round" stroke-linejoin="round" stroke-width="0.85" fill-rule="evenodd"/>
          </g>
          <path id="Caminho_3624" data-name="Caminho 3624" d="M335.66,267.732c9.106-10.747,30.951-48.281,30.951-48.281l-9.275-8.366-.78.3-27.05,29.359-14.3,15.1C307.731,263.749,319.943,286.277,335.66,267.732Z" transform="translate(-312.953 -168.524)" fill="#e7baa8" fill-rule="evenodd"/>
        </g>
        <line id="Linha_23" data-name="Linha 23" x1="11.904" y2="12.645" transform="translate(7.122 137.075)" fill="none" stroke="#d68982" stroke-linecap="round" stroke-linejoin="round" stroke-width="0.85"/>
        <g id="Grupo_456" data-name="Grupo 456" transform="translate(76.155 90.201)">
          <path id="Caminho_3625" data-name="Caminho 3625" d="M436.035,183.048l-11.49,19.9a.463.463,0,1,1-.8-.464l11.325-19.617Z" transform="translate(-421.981 -182.867)" fill="#e6b25c" fill-rule="evenodd"/>
          <g id="Grupo_455" data-name="Grupo 455" transform="translate(0 0.199)">
            <g id="Grupo_450" data-name="Grupo 450" transform="translate(9.293)">
              <path id="Caminho_3626" data-name="Caminho 3626" d="M435.571,183.247a.72.72,0,1,1-.984.263A.719.719,0,0,1,435.571,183.247Z" transform="translate(-434.491 -183.15)" fill="#e6b25c" fill-rule="evenodd"/>
              <path id="Caminho_3627" data-name="Caminho 3627" d="M442.146,187.042a.72.72,0,1,1-.984.263A.721.721,0,0,1,442.146,187.042Z" transform="translate(-436.447 -184.279)" fill="#e6b25c" fill-rule="evenodd"/>
            </g>
            <g id="Grupo_451" data-name="Grupo 451" transform="translate(6.97 4.024)">
              <path id="Caminho_3628" data-name="Caminho 3628" d="M432.263,188.974a.72.72,0,1,1-.984.264A.722.722,0,0,1,432.263,188.974Z" transform="translate(-431.183 -188.878)" fill="#e6b25c" fill-rule="evenodd"/>
              <path id="Caminho_3629" data-name="Caminho 3629" d="M438.838,192.771a.72.72,0,1,1-.983.263A.72.72,0,0,1,438.838,192.771Z" transform="translate(-433.139 -190.007)" fill="#e6b25c" fill-rule="evenodd"/>
            </g>
            <g id="Grupo_452" data-name="Grupo 452" transform="translate(4.647 8.048)">
              <path id="Caminho_3630" data-name="Caminho 3630" d="M428.956,194.7a.72.72,0,1,1-.983.263A.721.721,0,0,1,428.956,194.7Z" transform="translate(-427.876 -194.606)" fill="#e6b25c" fill-rule="evenodd"/>
              <path id="Caminho_3631" data-name="Caminho 3631" d="M435.532,198.5a.72.72,0,1,1-.984.263A.719.719,0,0,1,435.532,198.5Z" transform="translate(-429.832 -195.735)" fill="#e6b25c" fill-rule="evenodd"/>
            </g>
            <g id="Grupo_453" data-name="Grupo 453" transform="translate(2.324 12.072)">
              <path id="Caminho_3632" data-name="Caminho 3632" d="M425.648,200.431a.72.72,0,1,1-.983.263A.72.72,0,0,1,425.648,200.431Z" transform="translate(-424.569 -200.334)" fill="#e6b25c" fill-rule="evenodd"/>
              <path id="Caminho_3633" data-name="Caminho 3633" d="M432.223,204.226a.72.72,0,1,1-.983.264A.721.721,0,0,1,432.223,204.226Z" transform="translate(-426.525 -201.463)" fill="#e6b25c" fill-rule="evenodd"/>
            </g>
            <g id="Grupo_454" data-name="Grupo 454" transform="translate(0 16.096)">
              <path id="Caminho_3634" data-name="Caminho 3634" d="M422.342,206.158a.72.72,0,1,1-.984.264A.721.721,0,0,1,422.342,206.158Z" transform="translate(-421.262 -206.062)" fill="#e6b25c" fill-rule="evenodd"/>
              <path id="Caminho_3635" data-name="Caminho 3635" d="M428.917,209.955a.72.72,0,1,1-.983.263A.719.719,0,0,1,428.917,209.955Z" transform="translate(-423.218 -207.191)" fill="#e6b25c" fill-rule="evenodd"/>
            </g>
          </g>
        </g>
        <path id="Caminho_3636" data-name="Caminho 3636" d="M414.122,73.056a44.748,44.748,0,0,0-2.589-4.013,13.26,13.26,0,0,0-8.968.932c-9.272,4.031-23.746,16.518-36.056-4.011-3.079,2.625-6.386,5.61-9.343,8.438,3.35,5.82,9.055,14.212,15.454,17.1,10.164,4.59,18.142-4.917,23.169-10.273C399.893,76.861,406.836,70.016,414.122,73.056Z" transform="translate(-326.038 -57.887)" fill="#443e6f" fill-rule="evenodd"/>
      </g>
    </g>
  </g>
</svg>
