<svg id="medal" xmlns="http://www.w3.org/2000/svg" width="22.682" height="29.915" viewBox="0 0 22.682 29.915">
  <g id="Grupo_527" data-name="Grupo 527" transform="translate(2.803 2.809)">
    <g id="Grupo_526" data-name="Grupo 526">
      <path id="Caminho_3700" data-name="Caminho 3700" d="M122.235,49a8.519,8.519,0,0,0-10.569,12.828.471.471,0,0,0,.744-.579,7.576,7.576,0,0,1,9.4-11.407.471.471,0,1,0,.425-.841Z" transform="translate(-109.878 -48.082)" fill="#fff"/>
    </g>
  </g>
  <g id="Grupo_529" data-name="Grupo 529" transform="translate(5.914 7.234)">
    <g id="Grupo_528" data-name="Grupo 528" transform="translate(0)">
      <path id="Caminho_3701" data-name="Caminho 3701" d="M176.119,124.065a.471.471,0,0,0-.842.425,7.576,7.576,0,0,1-11.408,9.4.471.471,0,1,0-.579.744,8.519,8.519,0,0,0,12.829-10.568Z" transform="translate(-163.109 -123.806)" fill="#fff"/>
    </g>
  </g>
  <g id="Grupo_531" data-name="Grupo 531" transform="translate(16.17 4.826)">
    <g id="Grupo_530" data-name="Grupo 530" transform="translate(0)">
      <path id="Caminho_3702" data-name="Caminho 3702" d="M340.183,83.476c-.117-.132-.239-.263-.365-.388s-.256-.248-.388-.365a.471.471,0,0,0-.624.706c.118.1.234.213.346.325s.221.228.325.346a.471.471,0,0,0,.707-.624Z" transform="translate(-338.647 -82.605)" fill="#fff"/>
    </g>
  </g>
  <g id="Grupo_533" data-name="Grupo 533" transform="translate(0 0)">
    <g id="Grupo_532" data-name="Grupo 532">
      <path id="Caminho_3703" data-name="Caminho 3703" d="M84.344,12.177a1.6,1.6,0,0,0,0-1.672l-.62-1.017a.664.664,0,0,1-.089-.448l.185-1.175a1.6,1.6,0,0,0-.642-1.548l-.961-.7a.664.664,0,0,1-.254-.38l-.28-1.157A1.6,1.6,0,0,0,80.5,2.9l-1.157-.28a.663.663,0,0,1-.38-.254l-.7-.961A1.6,1.6,0,0,0,76.715.76L75.54.945a.664.664,0,0,1-.448-.089L74.075.236a1.6,1.6,0,0,0-1.672,0l-1.017.62a.664.664,0,0,1-.448.089L69.763.76a1.6,1.6,0,0,0-1.548.642l-.7.961a.664.664,0,0,1-.38.254l-1.157.28A1.6,1.6,0,0,0,64.8,4.08l-.28,1.157a.663.663,0,0,1-.254.38l-.961.7a1.6,1.6,0,0,0-.642,1.548l.185,1.175a.664.664,0,0,1-.089.448l-.62,1.017a1.6,1.6,0,0,0,0,1.672l.62,1.017a.664.664,0,0,1,.089.448l-.185,1.175a1.6,1.6,0,0,0,.642,1.548l.961.7a.663.663,0,0,1,.254.38L64.8,18.6a1.6,1.6,0,0,0,1.183,1.183l.483.117-3.269,7.293a.471.471,0,0,0,.486.661l2.631-.315,1.515,2.173a.472.472,0,0,0,.387.2l.044,0a.472.472,0,0,0,.386-.276l3.339-7.448.423.258a1.6,1.6,0,0,0,1.672,0l.438-.267,3.343,7.458a.471.471,0,0,0,.386.276l.044,0a.471.471,0,0,0,.387-.2l1.515-2.173,2.631.315a.471.471,0,0,0,.486-.661l-3.271-7.3.465-.112A1.6,1.6,0,0,0,81.682,18.6l.28-1.157a.663.663,0,0,1,.254-.38l.961-.7a1.6,1.6,0,0,0,.642-1.548l-.185-1.175a.664.664,0,0,1,.089-.448ZM68.121,28.491l-1.2-1.722a.471.471,0,0,0-.443-.2l-2.085.249,2.979-6.645a.659.659,0,0,1,.144.143l.7.961a1.62,1.62,0,0,0,.222.248l-1.568,3.5a.471.471,0,1,0,.86.386l1.562-3.485a1.614,1.614,0,0,0,.471,0l1.175-.185a.662.662,0,0,1,.211,0ZM82.1,26.82l-2.085-.249a.471.471,0,0,0-.443.2l-1.2,1.722-3.028-6.755a.664.664,0,0,1,.192,0l1.175.185a1.615,1.615,0,0,0,.49,0l1.563,3.488a.471.471,0,1,0,.86-.386l-1.574-3.511a1.623,1.623,0,0,0,.209-.234l.7-.961a.662.662,0,0,1,.159-.155Zm1.435-15.134-.62,1.017a1.608,1.608,0,0,0-.215,1.085l.185,1.175a.66.66,0,0,1-.265.639l-.962.7a1.608,1.608,0,0,0-.616.921l-.28,1.157a.66.66,0,0,1-.488.488l-1.157.28a1.608,1.608,0,0,0-.921.616l-.7.961a.66.66,0,0,1-.639.265l-1.175-.185a1.608,1.608,0,0,0-1.086.215l-1.017.62a.661.661,0,0,1-.69,0l-1.017-.62a1.607,1.607,0,0,0-1.086-.215l-1.175.185a.66.66,0,0,1-.639-.265l-.7-.961a1.608,1.608,0,0,0-.921-.616l-1.157-.28a.66.66,0,0,1-.488-.488l-.28-1.157a1.607,1.607,0,0,0-.616-.921l-.961-.7a.66.66,0,0,1-.265-.639l.185-1.175a1.608,1.608,0,0,0-.215-1.086l-.62-1.017a.66.66,0,0,1,0-.69l.62-1.017a1.608,1.608,0,0,0,.215-1.085L63.59,7.718a.66.66,0,0,1,.265-.639l.961-.7a1.608,1.608,0,0,0,.616-.921l.28-1.157a.66.66,0,0,1,.488-.488l1.157-.28a1.607,1.607,0,0,0,.921-.616l.7-.961a.66.66,0,0,1,.639-.265l1.175.185a1.607,1.607,0,0,0,1.086-.215l1.017-.62a.661.661,0,0,1,.69,0l1.017.62a1.607,1.607,0,0,0,1.086.215l1.175-.185a.66.66,0,0,1,.639.265l.7.961a1.608,1.608,0,0,0,.921.616l1.157.28a.66.66,0,0,1,.488.488l.28,1.157a1.607,1.607,0,0,0,.616.921l.961.7a.66.66,0,0,1,.265.639L82.7,8.893a1.608,1.608,0,0,0,.215,1.086L83.539,11A.66.66,0,0,1,83.539,11.686Z" transform="translate(-61.898 0)" fill="#fff"/>
    </g>
  </g>
  <g id="Grupo_535" data-name="Grupo 535" transform="translate(5.782 5.866)">
    <g id="Grupo_534" data-name="Grupo 534" transform="translate(0)">
      <path id="Caminho_3704" data-name="Caminho 3704" d="M171.925,104.406a.843.843,0,0,0-.71-.583l-2.837-.336-1.2-2.594a.852.852,0,0,0-1.547,0l-1.2,2.594-2.837.336a.852.852,0,0,0-.478,1.471l2.1,1.94-.557,2.8a.855.855,0,0,0,.835,1.019.852.852,0,0,0,.417-.11l2.493-1.4,2.493,1.4a.852.852,0,0,0,1.252-.909l-.557-2.8,2.1-1.94A.843.843,0,0,0,171.925,104.406Zm-3.163,2.315a.472.472,0,0,0-.142.438l.57,2.867-2.551-1.428a.471.471,0,0,0-.461,0l-2.551,1.428.57-2.867a.471.471,0,0,0-.142-.438l-2.146-1.985,2.9-.344a.472.472,0,0,0,.373-.271l1.224-2.654,1.224,2.654a.471.471,0,0,0,.373.271l2.9.344Z" transform="translate(-160.849 -100.398)" fill="#fff"/>
    </g>
  </g>
</svg>
