<svg xmlns="http://www.w3.org/2000/svg" width="23.536" height="23.536" viewBox="0 0 23.536 23.536">
  <g id="user" transform="translate(0.25 0.25)">
    <g id="Grupo_547" data-name="Grupo 547" transform="translate(0)">
      <path id="Caminho_3708" data-name="Caminho 3708" d="M19.663,14.892a11.474,11.474,0,0,0-4.377-2.745,6.659,6.659,0,1,0-7.535,0A11.536,11.536,0,0,0,0,23.036H1.8a9.729,9.729,0,0,1,9.718-9.718,10.381,10.381,0,0,1,2.031.214,9.664,9.664,0,0,1,7.687,9.5h1.8A11.443,11.443,0,0,0,19.663,14.892Zm-8.145-3.374a4.859,4.859,0,1,1,4.859-4.859A4.865,4.865,0,0,1,11.518,11.518Z" transform="translate(0 0)" fill="#fff" stroke="#ff2e6a" stroke-width="0.5"/>
    </g>
  </g>
</svg>
