<svg xmlns="http://www.w3.org/2000/svg" width="20.274" height="26.954" viewBox="0 0 20.274 26.954">
  <g id="Grupo_572" data-name="Grupo 572" transform="translate(743.5 112.83)">
    <g id="placeholder" transform="translate(-743.5 -106.153)">
      <g id="Grupo_422" data-name="Grupo 422">
        <g id="Grupo_421" data-name="Grupo 421">
          <path id="Caminho_3566" data-name="Caminho 3566" d="M83.128,0a7.13,7.13,0,0,0-6.064,10.877L82.723,20a.594.594,0,0,0,.5.281h0a.594.594,0,0,0,.5-.289l5.514-9.207A7.13,7.13,0,0,0,83.128,0Zm5.1,10.17-5.013,8.371-5.144-8.29a5.944,5.944,0,1,1,10.158-.08Z" transform="translate(-76)" fill="#fff"/>
        </g>
      </g>
      <g id="Grupo_424" data-name="Grupo 424" transform="translate(3.564 3.564)">
        <g id="Grupo_423" data-name="Grupo 423">
          <path id="Caminho_3567" data-name="Caminho 3567" d="M169.564,90a3.564,3.564,0,1,0,3.564,3.564A3.568,3.568,0,0,0,169.564,90Zm0,5.948a2.384,2.384,0,1,1,2.38-2.384A2.386,2.386,0,0,1,169.564,95.948Z" transform="translate(-166 -90)" fill="#fff"/>
        </g>
      </g>
    </g>
    <path id="Caminho_3729" data-name="Caminho 3729" d="M-734.429-110.286c1.376.128,4.09,1.556,6.222,3.976a7.283,7.283,0,0,1,1.828,4.074" transform="translate(0.293 0.32)" fill="none" stroke="#fff" stroke-linecap="round" stroke-width="1"/>
    <path id="Caminho_3730" data-name="Caminho 3730" d="M-734.429-110.286c2.174.2,7.686,3.65,8.05,8.05" transform="translate(2.614 -2)" fill="none" stroke="#fff" stroke-linecap="round" stroke-width="1"/>
  </g>
</svg>
